<svg width="199" height="127" viewBox="0 0 199 127" fill="none" xmlns="http://www.w3.org/2000/svg">
<path fill-rule="evenodd" clip-rule="evenodd" d="M81.0493 0.000119416L10.956 126.047L170.981 126.132L138.067 71.0454L123.907 69.6294L81.0493 0.000119416Z" fill="#845F1D"/>
<path fill-rule="evenodd" clip-rule="evenodd" d="M146.696 61.7553C155.694 82.87 165.3 103.569 174.981 124.23C175.39 125.099 176.512 126.202 177.325 126.222C184.174 126.378 191.03 126.31 198.932 126.31C181.086 104.258 163.892 83.006 146.696 61.7553Z" fill="#E19E14"/>
<path fill-rule="evenodd" clip-rule="evenodd" d="M126.925 89.9187C125.857 90.52 124.786 91.1173 123.721 91.728C123.337 91.948 122.928 91.9747 122.504 91.9747C115.562 91.9733 108.62 91.9573 101.68 91.9933C100.677 91.9987 100.346 91.6413 100.486 90.7027C100.869 88.1387 100.332 88.3627 102.948 88.3507C106.592 88.336 110.238 88.3467 113.885 88.3467C117.742 88.3467 121.598 88.344 125.454 88.3507C125.873 88.352 126.297 88.372 126.708 88.444C127.158 88.524 127.293 88.916 127.378 89.2987C127.458 89.6507 127.17 89.78 126.925 89.9187ZM117.689 96.1267C117.378 96.4107 116.978 96.6173 116.738 96.9493C115.438 98.744 113.658 99.028 111.576 98.9453C108.074 98.808 104.565 98.912 101.06 98.9053C99.8996 98.904 99.7703 98.7453 99.8956 97.6253C100.16 95.244 100.16 95.244 102.61 95.244H109.341C112.005 95.244 114.669 95.2413 117.333 95.2533C117.624 95.2547 118.042 95.104 118.162 95.492C118.253 95.784 117.889 95.944 117.689 96.1267V96.1267ZM94.9636 86.6933C93.4036 88.6413 91.6223 90.376 89.6743 91.9347C89.2636 92.2627 89.053 92.6133 88.977 93.1493C88.1676 98.8307 87.3143 104.504 86.513 110.188C86.4036 110.969 86.1023 111.307 85.3143 111.285C84.2623 111.253 83.2116 111.252 82.161 111.285C81.353 111.312 80.9903 111.024 80.8716 110.167C80.0823 104.519 79.225 98.8813 78.4263 93.2347C78.3396 92.62 78.0823 92.2333 77.6223 91.856C71.0916 86.496 66.9076 79.7333 65.4343 71.3627C64.8796 68.2067 64.7503 65.0373 65.1276 61.8453C65.2236 61.0387 65.6663 60.716 66.3716 60.5133C69.041 59.7453 71.777 59.3267 74.529 59.0747C77.5956 58.7933 80.6716 58.592 83.7583 58.616C89.289 58.7547 94.817 58.948 100.226 60.2973C102.077 60.7573 102.133 60.7667 102.294 62.7053C103.038 71.6693 100.582 79.6707 94.9636 86.6933ZM64.9863 98.9067C61.2356 98.9067 57.4863 98.8933 53.7343 98.9187C53.0143 98.9267 52.4716 98.716 51.965 98.2C51.2543 97.4787 50.461 96.836 49.7223 96.14C49.5143 95.9413 49.0823 95.8027 49.2623 95.4187C49.397 95.1333 49.7676 95.252 50.0356 95.2507C52.7343 95.244 55.433 95.244 58.1316 95.244C60.761 95.244 63.389 95.2693 66.0183 95.2333C66.9143 95.2213 67.341 95.4467 67.3756 96.4573C67.4583 98.9093 67.509 98.9067 64.9863 98.9067ZM42.577 91.0973C41.9543 90.652 41.233 90.344 40.561 89.968C40.2623 89.8013 39.8863 89.676 40.0343 89.196C40.153 88.808 40.3303 88.468 40.7823 88.416C41.1636 88.372 41.549 88.3507 41.9343 88.3507C45.7556 88.344 49.577 88.3467 53.397 88.3467C57.325 88.3467 61.2516 88.3733 65.177 88.3307C66.245 88.3173 66.709 88.5867 66.8143 89.7613C67.0103 91.9813 67.101 91.9747 64.8716 91.9747C58.561 91.9747 52.253 91.9533 45.9423 91.9947C44.7063 92.0027 43.6023 91.8267 42.577 91.0973V91.0973ZM42.229 83.8987C43.5103 81.0587 42.6036 81.5533 45.8303 81.5387C52.1036 81.5093 58.3756 81.5293 64.649 81.5307C66.073 81.5307 66.073 81.536 66.2423 82.972C66.5036 85.1693 66.5036 85.1693 64.2636 85.1693H54.065C50.4196 85.1693 46.7756 85.172 43.1303 85.168C41.7983 85.1667 41.7063 85.0533 42.229 83.8987ZM45.0783 77.1093C46.4063 74.0307 45.6143 74.6373 48.6836 74.6067C53.0596 74.5667 57.437 74.616 61.813 74.5813C62.645 74.5747 63.2116 74.7987 63.5876 75.5587C63.8503 76.0907 64.2183 76.568 64.517 77.0813C64.685 77.3693 65.057 77.6413 64.8676 78.0053C64.677 78.3707 64.2436 78.2533 63.909 78.2533C61.2823 78.264 58.657 78.26 56.0316 78.26H54.8756C51.8663 78.2587 48.8543 78.2667 45.8423 78.2547C44.733 78.2507 44.641 78.1227 45.0783 77.1093V77.1093ZM47.9423 70.2707C49.3196 67.1253 48.4943 67.7267 51.7183 67.6773C54.101 67.6427 56.485 67.6987 58.8663 67.6573C59.7783 67.64 60.3343 67.8547 60.4383 68.8653C60.493 69.376 60.7023 69.884 60.913 70.3613C61.2596 71.1453 60.9596 71.3547 60.2023 71.3467C58.2743 71.3253 56.3463 71.34 54.4196 71.3387C52.493 71.3387 50.565 71.32 48.6383 71.3467C47.765 71.36 47.6023 71.0427 47.9423 70.2707V70.2707ZM50.8796 63.2773C52.1703 60.2933 51.437 60.8053 54.6223 60.768C56.9356 60.74 59.249 60.764 61.5636 60.7613C63.0516 60.7587 63.057 60.756 63.0583 59.2213C63.061 56.6613 63.0596 54.1027 63.0596 51.5427C63.0596 48.8787 63.077 46.2147 63.0476 43.552C63.0423 42.8187 63.2436 42.2773 63.881 41.8693C64.737 41.324 65.561 40.7267 66.3903 40.14C66.965 39.7347 67.2876 39.8027 67.2876 40.5733C67.2863 45.972 67.2823 51.3693 67.2903 56.768C67.2916 57.4 66.997 57.692 66.409 57.8747C63.685 58.7227 63.0703 59.812 63.8476 62.5933C64.097 63.484 63.9383 63.764 63.0276 64.028C61.817 64.3787 60.6196 64.4147 59.397 64.412C56.8023 64.4107 54.209 64.4173 51.6156 64.4093C50.4916 64.4053 50.4276 64.3253 50.8796 63.2773V63.2773ZM53.673 56.6187C53.6876 56.5867 53.701 56.5547 53.713 56.5213C54.645 53.968 54.645 53.968 57.3996 53.9667C58.6623 53.9667 59.9236 53.9933 61.1836 53.96C61.881 53.94 62.1876 54.1787 62.2356 54.908C62.4063 57.4733 62.417 57.4813 59.8716 57.4813H57.7676C56.6116 57.48 55.4556 57.4667 54.2983 57.4867C53.6356 57.4973 53.357 57.288 53.673 56.6187ZM56.521 49.8253C56.537 49.7947 56.5436 49.7587 56.561 49.728C57.005 48.8667 57.0196 47.5627 57.8876 47.1947C59.0183 46.7147 60.3716 47.0573 61.6316 47.0533C61.665 47.0533 61.7076 47.056 61.7316 47.0733C62.6983 47.836 62.081 48.8827 62.2036 49.7933C62.2743 50.3133 61.993 50.6693 61.413 50.6733C60.677 50.6787 59.941 50.6733 59.205 50.6733V50.68C58.5036 50.68 57.8023 50.6813 57.101 50.6787C56.4996 50.676 56.2436 50.4307 56.521 49.8253V49.8253ZM70.5716 43.5027C70.5716 41.8573 70.5916 40.2107 70.565 38.5667C70.5543 37.96 70.769 37.576 71.3263 37.34C72.1316 37 72.9316 36.6453 73.7183 36.2627C74.5156 35.876 74.6983 36.2253 74.6956 36.9653C74.681 40.0813 74.689 43.1973 74.689 46.3133C74.689 49.3613 74.6583 52.408 74.7063 55.452C74.721 56.452 74.3596 56.8627 73.3716 56.836C72.8516 56.8213 72.325 56.9053 71.8103 56.9947C70.921 57.1467 70.5463 56.8693 70.557 55.8987C70.5943 51.7667 70.5716 47.636 70.5716 43.5027V43.5027ZM77.9543 35.664C77.9543 35.6307 77.9543 35.5947 77.9583 35.56C78.0343 34.7813 79.5076 34.2027 81.241 34.1987C82.3036 34.1973 82.061 34.956 82.0636 35.5293C82.081 38.7893 82.0716 42.0467 82.0716 45.304C82.0716 48.528 82.0743 51.7507 82.0716 54.9733C82.0703 56.4067 82.0636 56.4027 80.5903 56.4187C80.0303 56.4253 79.465 56.4093 78.9116 56.4787C78.2343 56.56 77.945 56.3373 77.9476 55.6333C77.9583 48.976 77.9543 42.3213 77.9543 35.664V35.664ZM85.3303 45.2347C85.329 41.9773 85.325 38.72 85.3316 35.464C85.3356 34.212 85.529 34.032 86.7543 34.28C90.0303 34.9413 89.4143 34.4053 89.4343 37.4213C89.4703 43.3387 89.445 49.256 89.4436 55.176C89.4423 56.5093 89.437 56.504 88.1076 56.44C87.5836 56.4133 87.0543 56.38 86.5343 56.4253C85.617 56.504 85.305 56.1293 85.3143 55.2147C85.3543 51.8893 85.3303 48.5613 85.3303 45.2347V45.2347ZM92.7196 46.3547C92.7196 43.34 92.7116 40.328 92.7223 37.3147C92.7276 36.024 92.853 35.948 94.045 36.4253C96.953 37.588 96.953 37.588 96.953 40.6987C96.953 45.6733 96.9556 50.6493 96.9516 55.624C96.9503 57.044 96.8103 57.1573 95.4463 56.9467C95.205 56.9107 94.9623 56.8493 94.721 56.8493C92.393 56.8387 92.733 56.5507 92.7223 54.6573C92.7076 51.8893 92.7196 49.1213 92.7196 46.3547ZM100.369 39.9653C100.716 39.7413 101 40.1533 101.277 40.3293C104.352 42.3013 104.35 42.3067 104.35 45.9733V51.5453C104.35 54.104 104.348 56.6627 104.35 59.2213C104.352 60.7573 104.356 60.7613 105.94 60.7613C108.708 60.7627 111.477 60.7867 114.246 60.748C115.096 60.736 115.585 61.0053 115.928 61.8173C117.029 64.424 117.057 64.412 114.194 64.412C111.917 64.412 109.637 64.3627 107.362 64.432C106.177 64.468 105.082 64.168 103.961 63.9107C103.426 63.788 103.278 63.5067 103.433 63.0013C103.557 62.5987 103.666 62.192 103.75 61.78C104.132 59.896 103.437 58.5533 101.584 58.076C100.408 57.772 100.188 57.2013 100.201 56.092C100.265 51.0467 100.226 46 100.236 40.9533C100.236 40.616 100.054 40.168 100.369 39.9653V39.9653ZM107.748 53.9667C109.044 53.9667 110.342 53.9987 111.637 53.956C112.336 53.9307 112.756 54.1693 112.981 54.8373C113.17 55.4 113.413 55.9467 113.668 56.484C114.004 57.1907 113.866 57.5173 113.022 57.4893C111.904 57.4533 110.782 57.4813 109.661 57.48C108.54 57.4773 107.42 57.46 106.298 57.4867C105.678 57.5 105.437 57.2333 105.377 56.628C105.12 54.0853 105.213 53.9667 107.748 53.9667V53.9667ZM105.454 47.5387C105.492 47.22 105.726 47.0653 106.042 47.0533C106.357 47.04 106.673 47.032 106.986 47.032C109.937 47.0227 109.921 47.0293 110.865 49.78C111.1 50.4667 110.876 50.6853 110.229 50.6827C109.564 50.68 108.9 50.6813 108.236 50.6813V50.688C108.025 50.688 107.812 50.7133 107.606 50.6827C106.908 50.5827 105.954 51.0573 105.56 50.324C105.117 49.5027 105.349 48.4773 105.454 47.5387V47.5387ZM118.777 68.616C119.934 71.352 119.96 71.34 116.964 71.34H112.969C111.077 71.34 109.184 71.3187 107.292 71.3507C106.433 71.364 106.076 71.132 106.508 70.26C106.617 70.0413 106.69 69.8053 106.765 69.5733C107.394 67.6707 107.394 67.6707 109.364 67.6707C111.992 67.6707 114.621 67.6907 117.249 67.66C118.01 67.6507 118.462 67.8747 118.777 68.616V68.616ZM121.724 75.6427C122.793 78.2747 122.83 78.26 119.976 78.26H112.52C109.508 78.2587 106.498 78.2627 103.488 78.2533C103.152 78.2533 102.718 78.372 102.526 78.0107C102.33 77.6467 102.744 77.3933 102.862 77.0827C103.664 74.9827 105.16 74.4427 107.361 74.5413C111.588 74.7333 115.829 74.616 120.065 74.5827C120.912 74.576 121.385 74.812 121.724 75.6427V75.6427ZM124.673 82.7013C124.802 83.1707 125.02 83.6213 125.24 84.0573C125.657 84.884 125.408 85.1853 124.502 85.1773C121.664 85.152 118.825 85.1693 115.986 85.1693H113.254C109.644 85.1693 106.034 85.1707 102.424 85.168C101.06 85.1667 101.06 85.16 101.1 83.844C101.172 81.5293 101.172 81.5293 103.444 81.5293C109.926 81.5293 116.41 81.5507 122.894 81.508C123.852 81.5027 124.416 81.7653 124.673 82.7013V82.7013ZM170.981 126.132C160.434 102.607 150.269 79.928 139.826 56.6333C135.689 60.1533 131.845 63.42 128.077 66.6267L81.049 -2.64311e-06L10.9556 126.047H34.1983C34.2023 125.935 34.2063 125.817 34.213 125.677C34.5743 119.557 35.709 113.651 39.2796 108.471C42.5596 103.713 47.1636 101.029 52.7516 99.8853C53.6036 99.7107 54.1436 100.053 54.3983 100.795C54.797 101.956 55.5703 102.216 56.7356 102.191C60.0636 102.113 63.3943 102.188 66.7223 102.147C67.6343 102.137 67.9503 102.471 67.9836 103.364C68.0796 105.832 68.1076 105.832 65.601 105.832C62.937 105.832 60.273 105.851 57.6103 105.821C56.793 105.813 56.557 106.044 56.7983 106.869C57.573 109.515 56.9196 109.055 59.6503 109.085C62.1743 109.119 64.6996 109.128 67.2196 109.077C68.1556 109.055 68.593 109.357 68.5876 110.308C68.5756 112.88 69.3716 112.735 66.3383 112.741C63.921 112.747 61.501 112.755 59.0836 112.74C58.385 112.735 58.085 112.879 58.221 113.711C58.601 116.016 58.5596 116.023 60.9396 116.023C63.2863 116.023 65.637 116.045 67.9836 116.009C68.733 115.997 69.0276 116.279 69.1503 117C69.5636 119.433 69.4943 119.541 67.065 119.541C64.681 119.541 62.297 119.561 59.9143 119.533C59.1863 119.525 58.9463 119.701 59.0476 120.5C59.3423 122.816 59.3036 122.823 61.6236 122.823C63.9023 122.823 66.1796 122.841 68.4583 122.812C69.2596 122.804 69.7183 123.011 69.6983 123.925C69.685 124.585 69.7783 125.252 69.881 125.907C69.8903 125.959 69.8903 125.999 69.8956 126.047H72.057C72.0436 125.961 72.0316 125.877 72.025 125.779C71.5423 119.465 70.9543 113.157 70.429 106.845C69.969 101.336 69.5476 95.82 69.1023 90.3093C68.9863 88.88 68.8356 87.452 68.7196 86.0213C68.701 85.8013 68.6036 85.4893 68.9196 85.3867C69.1503 85.3133 69.2943 85.5347 69.433 85.6827C71.793 88.1773 74.149 90.6747 76.5076 93.1707C76.869 93.5573 76.9103 94.0613 76.981 94.5387C77.8423 100.212 78.7076 105.887 79.5236 111.569C79.645 112.411 79.9703 112.7 80.8023 112.681C82.7636 112.635 84.729 112.644 86.6916 112.676C87.4316 112.691 87.7423 112.415 87.8503 111.671C88.6823 105.96 89.5436 100.251 90.4063 94.5413C90.489 93.992 90.5943 93.456 91.0196 93.0133C93.2703 90.6547 95.4956 88.276 97.7383 85.9107C97.9436 85.6933 98.141 85.28 98.465 85.4053C98.869 85.5587 98.685 86.02 98.6583 86.3387C98.2023 91.744 97.7223 97.1467 97.269 102.552C96.953 106.317 96.6756 110.085 96.3663 113.855C96.0303 117.919 95.6636 121.979 95.345 126.047H97.4916C97.4916 125.988 97.4876 125.936 97.4916 125.872C97.633 122.825 97.5876 122.823 100.648 122.823C102.752 122.823 104.856 122.792 106.957 122.836C107.869 122.857 108.28 122.637 108.276 121.616C108.274 119.541 108.332 119.541 106.178 119.541C103.83 119.541 101.481 119.516 99.1343 119.557C98.3543 119.571 98.1076 119.34 98.129 118.539C98.1956 116.023 98.1636 116.023 100.702 116.023C103.05 116.023 105.398 115.997 107.746 116.035C108.505 116.045 108.845 115.857 108.97 115.023C109.31 112.736 109.36 112.743 107.01 112.743C104.626 112.741 102.244 112.721 99.861 112.755C98.965 112.763 98.6716 112.519 98.7303 111.535C98.9023 108.599 98.8356 109.128 101.36 109.1C103.884 109.069 106.406 109.065 108.929 109.109C109.744 109.124 110.105 108.856 110.3 108.06C110.845 105.823 110.878 105.832 108.589 105.832C105.854 105.831 103.12 105.808 100.388 105.844C99.441 105.855 99.0783 105.516 99.3343 104.585C99.3423 104.552 99.3476 104.515 99.353 104.484C99.6516 102.163 99.6516 102.163 101.964 102.163C105.013 102.163 108.064 102.143 111.112 102.177C111.898 102.188 112.393 101.987 112.765 101.232C113.536 99.6573 113.601 99.6653 115.286 100.04C122.912 101.753 127.992 106.403 130.816 113.603C132.354 117.523 132.953 121.636 133.197 125.817C133.202 125.9 133.201 125.975 133.198 126.047H146.642L146.696 126.281L163.862 126.323L163.764 126.153C166.042 126.16 168.41 126.132 170.981 126.132" fill="#E19E14"/>
<path fill-rule="evenodd" clip-rule="evenodd" d="M81.0493 0.000119416L0 126.132H10.956L81.0493 0.000119416Z" fill="#845F1D"/>
<path fill-rule="evenodd" clip-rule="evenodd" d="M128.077 66.627L139.827 56.6337L170.981 126.131L166.743 125.916L128.077 66.627Z" fill="#845F1D"/>
</svg>
