<svg width="240" height="240" viewBox="0 0 240 240" fill="none" xmlns="http://www.w3.org/2000/svg">
<circle cx="120" cy="120" r="120" fill="white"/>
<path fill-rule="evenodd" clip-rule="evenodd" d="M102.049 57.0001L31.956 183.047L191.981 183.132L159.067 128.045L144.907 126.629L102.049 57.0001Z" fill="#845F1D"/>
<path fill-rule="evenodd" clip-rule="evenodd" d="M167.696 118.755C176.694 139.87 186.3 160.569 195.981 181.23C196.39 182.099 197.512 183.202 198.325 183.222C205.174 183.378 212.03 183.31 219.932 183.31C202.086 161.258 184.892 140.006 167.696 118.755Z" fill="#E19E14"/>
<path fill-rule="evenodd" clip-rule="evenodd" d="M147.925 146.919C146.857 147.52 145.786 148.117 144.721 148.728C144.337 148.948 143.928 148.975 143.504 148.975C136.562 148.973 129.62 148.957 122.68 148.993C121.677 148.999 121.346 148.641 121.486 147.703C121.869 145.139 121.332 145.363 123.948 145.351C127.592 145.336 131.238 145.347 134.885 145.347C138.742 145.347 142.598 145.344 146.454 145.351C146.873 145.352 147.297 145.372 147.708 145.444C148.158 145.524 148.293 145.916 148.378 146.299C148.458 146.651 148.17 146.78 147.925 146.919ZM138.689 153.127C138.378 153.411 137.978 153.617 137.738 153.949C136.438 155.744 134.658 156.028 132.576 155.945C129.074 155.808 125.565 155.912 122.06 155.905C120.9 155.904 120.77 155.745 120.896 154.625C121.16 152.244 121.16 152.244 123.61 152.244H130.341C133.005 152.244 135.669 152.241 138.333 152.253C138.624 152.255 139.042 152.104 139.162 152.492C139.253 152.784 138.889 152.944 138.689 153.127V153.127ZM115.964 143.693C114.404 145.641 112.622 147.376 110.674 148.935C110.264 149.263 110.053 149.613 109.977 150.149C109.168 155.831 108.314 161.504 107.513 167.188C107.404 167.969 107.102 168.307 106.314 168.285C105.262 168.253 104.212 168.252 103.161 168.285C102.353 168.312 101.99 168.024 101.872 167.167C101.082 161.519 100.225 155.881 99.4263 150.235C99.3396 149.62 99.0823 149.233 98.6223 148.856C92.0916 143.496 87.9076 136.733 86.4343 128.363C85.8796 125.207 85.7503 122.037 86.1276 118.845C86.2236 118.039 86.6663 117.716 87.3716 117.513C90.041 116.745 92.777 116.327 95.529 116.075C98.5956 115.793 101.672 115.592 104.758 115.616C110.289 115.755 115.817 115.948 121.226 117.297C123.077 117.757 123.133 117.767 123.294 119.705C124.038 128.669 121.582 136.671 115.964 143.693ZM85.9863 155.907C82.2356 155.907 78.4863 155.893 74.7343 155.919C74.0143 155.927 73.4716 155.716 72.965 155.2C72.2543 154.479 71.461 153.836 70.7223 153.14C70.5143 152.941 70.0823 152.803 70.2623 152.419C70.397 152.133 70.7676 152.252 71.0356 152.251C73.7343 152.244 76.433 152.244 79.1316 152.244C81.761 152.244 84.389 152.269 87.0183 152.233C87.9143 152.221 88.341 152.447 88.3756 153.457C88.4583 155.909 88.509 155.907 85.9863 155.907ZM63.577 148.097C62.9543 147.652 62.233 147.344 61.561 146.968C61.2623 146.801 60.8863 146.676 61.0343 146.196C61.153 145.808 61.3303 145.468 61.7823 145.416C62.1636 145.372 62.549 145.351 62.9343 145.351C66.7556 145.344 70.577 145.347 74.397 145.347C78.325 145.347 82.2516 145.373 86.177 145.331C87.245 145.317 87.709 145.587 87.8143 146.761C88.0103 148.981 88.101 148.975 85.8716 148.975C79.561 148.975 73.253 148.953 66.9423 148.995C65.7063 149.003 64.6023 148.827 63.577 148.097V148.097ZM63.229 140.899C64.5103 138.059 63.6036 138.553 66.8303 138.539C73.1036 138.509 79.3756 138.529 85.649 138.531C87.073 138.531 87.073 138.536 87.2423 139.972C87.5036 142.169 87.5036 142.169 85.2636 142.169H75.065C71.4196 142.169 67.7756 142.172 64.1303 142.168C62.7983 142.167 62.7063 142.053 63.229 140.899ZM66.0783 134.109C67.4063 131.031 66.6143 131.637 69.6836 131.607C74.0596 131.567 78.437 131.616 82.813 131.581C83.645 131.575 84.2116 131.799 84.5876 132.559C84.8503 133.091 85.2183 133.568 85.517 134.081C85.685 134.369 86.057 134.641 85.8676 135.005C85.677 135.371 85.2436 135.253 84.909 135.253C82.2823 135.264 79.657 135.26 77.0316 135.26H75.8756C72.8663 135.259 69.8543 135.267 66.8423 135.255C65.733 135.251 65.641 135.123 66.0783 134.109V134.109ZM68.9423 127.271C70.3196 124.125 69.4943 124.727 72.7183 124.677C75.101 124.643 77.485 124.699 79.8663 124.657C80.7783 124.64 81.3343 124.855 81.4383 125.865C81.493 126.376 81.7023 126.884 81.913 127.361C82.2596 128.145 81.9596 128.355 81.2023 128.347C79.2743 128.325 77.3463 128.34 75.4196 128.339C73.493 128.339 71.565 128.32 69.6383 128.347C68.765 128.36 68.6023 128.043 68.9423 127.271V127.271ZM71.8796 120.277C73.1703 117.293 72.437 117.805 75.6223 117.768C77.9356 117.74 80.249 117.764 82.5636 117.761C84.0516 117.759 84.057 117.756 84.0583 116.221C84.061 113.661 84.0596 111.103 84.0596 108.543C84.0596 105.879 84.077 103.215 84.0476 100.552C84.0423 99.8187 84.2436 99.2773 84.881 98.8693C85.737 98.324 86.561 97.7267 87.3903 97.14C87.965 96.7347 88.2876 96.8027 88.2876 97.5733C88.2863 102.972 88.2823 108.369 88.2903 113.768C88.2916 114.4 87.997 114.692 87.409 114.875C84.685 115.723 84.0703 116.812 84.8476 119.593C85.097 120.484 84.9383 120.764 84.0276 121.028C82.817 121.379 81.6196 121.415 80.397 121.412C77.8023 121.411 75.209 121.417 72.6156 121.409C71.4916 121.405 71.4276 121.325 71.8796 120.277V120.277ZM74.673 113.619C74.6876 113.587 74.701 113.555 74.713 113.521C75.645 110.968 75.645 110.968 78.3996 110.967C79.6623 110.967 80.9236 110.993 82.1836 110.96C82.881 110.94 83.1876 111.179 83.2356 111.908C83.4063 114.473 83.417 114.481 80.8716 114.481H78.7676C77.6116 114.48 76.4556 114.467 75.2983 114.487C74.6356 114.497 74.357 114.288 74.673 113.619ZM77.521 106.825C77.537 106.795 77.5436 106.759 77.561 106.728C78.005 105.867 78.0196 104.563 78.8876 104.195C80.0183 103.715 81.3716 104.057 82.6316 104.053C82.665 104.053 82.7076 104.056 82.7316 104.073C83.6983 104.836 83.081 105.883 83.2036 106.793C83.2743 107.313 82.993 107.669 82.413 107.673C81.677 107.679 80.941 107.673 80.205 107.673V107.68C79.5036 107.68 78.8023 107.681 78.101 107.679C77.4996 107.676 77.2436 107.431 77.521 106.825V106.825ZM91.5716 100.503C91.5716 98.8573 91.5916 97.2107 91.565 95.5667C91.5543 94.96 91.769 94.576 92.3263 94.34C93.1316 94 93.9316 93.6453 94.7183 93.2627C95.5156 92.876 95.6983 93.2253 95.6956 93.9653C95.681 97.0813 95.689 100.197 95.689 103.313C95.689 106.361 95.6583 109.408 95.7063 112.452C95.721 113.452 95.3596 113.863 94.3716 113.836C93.8516 113.821 93.325 113.905 92.8103 113.995C91.921 114.147 91.5463 113.869 91.557 112.899C91.5943 108.767 91.5716 104.636 91.5716 100.503V100.503ZM98.9543 92.664C98.9543 92.6307 98.9543 92.5947 98.9583 92.56C99.0343 91.7813 100.508 91.2027 102.241 91.1987C103.304 91.1973 103.061 91.956 103.064 92.5293C103.081 95.7893 103.072 99.0467 103.072 102.304C103.072 105.528 103.074 108.751 103.072 111.973C103.07 113.407 103.064 113.403 101.59 113.419C101.03 113.425 100.465 113.409 99.9116 113.479C99.2343 113.56 98.945 113.337 98.9476 112.633C98.9583 105.976 98.9543 99.3213 98.9543 92.664V92.664ZM106.33 102.235C106.329 98.9773 106.325 95.72 106.332 92.464C106.336 91.212 106.529 91.032 107.754 91.28C111.03 91.9413 110.414 91.4053 110.434 94.4213C110.47 100.339 110.445 106.256 110.444 112.176C110.442 113.509 110.437 113.504 109.108 113.44C108.584 113.413 108.054 113.38 107.534 113.425C106.617 113.504 106.305 113.129 106.314 112.215C106.354 108.889 106.33 105.561 106.33 102.235V102.235ZM113.72 103.355C113.72 100.34 113.712 97.328 113.722 94.3147C113.728 93.024 113.853 92.948 115.045 93.4253C117.953 94.588 117.953 94.588 117.953 97.6987C117.953 102.673 117.956 107.649 117.952 112.624C117.95 114.044 117.81 114.157 116.446 113.947C116.205 113.911 115.962 113.849 115.721 113.849C113.393 113.839 113.733 113.551 113.722 111.657C113.708 108.889 113.72 106.121 113.72 103.355ZM121.369 96.9653C121.716 96.7413 122 97.1533 122.277 97.3293C125.352 99.3013 125.35 99.3067 125.35 102.973V108.545C125.35 111.104 125.348 113.663 125.35 116.221C125.352 117.757 125.356 117.761 126.94 117.761C129.708 117.763 132.477 117.787 135.246 117.748C136.096 117.736 136.585 118.005 136.928 118.817C138.029 121.424 138.057 121.412 135.194 121.412C132.917 121.412 130.637 121.363 128.362 121.432C127.177 121.468 126.082 121.168 124.961 120.911C124.426 120.788 124.278 120.507 124.433 120.001C124.557 119.599 124.666 119.192 124.75 118.78C125.132 116.896 124.437 115.553 122.584 115.076C121.408 114.772 121.188 114.201 121.201 113.092C121.265 108.047 121.226 103 121.236 97.9533C121.236 97.616 121.054 97.168 121.369 96.9653V96.9653ZM128.748 110.967C130.044 110.967 131.342 110.999 132.637 110.956C133.336 110.931 133.756 111.169 133.981 111.837C134.17 112.4 134.413 112.947 134.668 113.484C135.004 114.191 134.866 114.517 134.022 114.489C132.904 114.453 131.782 114.481 130.661 114.48C129.54 114.477 128.42 114.46 127.298 114.487C126.678 114.5 126.437 114.233 126.377 113.628C126.12 111.085 126.213 110.967 128.748 110.967V110.967ZM126.454 104.539C126.492 104.22 126.726 104.065 127.042 104.053C127.357 104.04 127.673 104.032 127.986 104.032C130.937 104.023 130.921 104.029 131.865 106.78C132.1 107.467 131.876 107.685 131.229 107.683C130.564 107.68 129.9 107.681 129.236 107.681V107.688C129.025 107.688 128.812 107.713 128.606 107.683C127.908 107.583 126.954 108.057 126.56 107.324C126.117 106.503 126.349 105.477 126.454 104.539V104.539ZM139.777 125.616C140.934 128.352 140.96 128.34 137.964 128.34H133.969C132.077 128.34 130.184 128.319 128.292 128.351C127.433 128.364 127.076 128.132 127.508 127.26C127.617 127.041 127.69 126.805 127.765 126.573C128.394 124.671 128.394 124.671 130.364 124.671C132.992 124.671 135.621 124.691 138.249 124.66C139.01 124.651 139.462 124.875 139.777 125.616V125.616ZM142.724 132.643C143.793 135.275 143.83 135.26 140.976 135.26H133.52C130.508 135.259 127.498 135.263 124.488 135.253C124.152 135.253 123.718 135.372 123.526 135.011C123.33 134.647 123.744 134.393 123.862 134.083C124.664 131.983 126.16 131.443 128.361 131.541C132.588 131.733 136.829 131.616 141.065 131.583C141.912 131.576 142.385 131.812 142.724 132.643V132.643ZM145.673 139.701C145.802 140.171 146.02 140.621 146.24 141.057C146.657 141.884 146.408 142.185 145.502 142.177C142.664 142.152 139.825 142.169 136.986 142.169H134.254C130.644 142.169 127.034 142.171 123.424 142.168C122.06 142.167 122.06 142.16 122.1 140.844C122.172 138.529 122.172 138.529 124.444 138.529C130.926 138.529 137.41 138.551 143.894 138.508C144.852 138.503 145.416 138.765 145.673 139.701V139.701ZM191.981 183.132C181.434 159.607 171.269 136.928 160.826 113.633C156.689 117.153 152.845 120.42 149.077 123.627L102.049 57L31.9556 183.047H55.1983C55.2023 182.935 55.2063 182.817 55.213 182.677C55.5743 176.557 56.709 170.651 60.2796 165.471C63.5596 160.713 68.1636 158.029 73.7516 156.885C74.6036 156.711 75.1436 157.053 75.3983 157.795C75.797 158.956 76.5703 159.216 77.7356 159.191C81.0636 159.113 84.3943 159.188 87.7223 159.147C88.6343 159.137 88.9503 159.471 88.9836 160.364C89.0796 162.832 89.1076 162.832 86.601 162.832C83.937 162.832 81.273 162.851 78.6103 162.821C77.793 162.813 77.557 163.044 77.7983 163.869C78.573 166.515 77.9196 166.055 80.6503 166.085C83.1743 166.119 85.6996 166.128 88.2196 166.077C89.1556 166.055 89.593 166.357 89.5876 167.308C89.5756 169.88 90.3716 169.735 87.3383 169.741C84.921 169.747 82.501 169.755 80.0836 169.74C79.385 169.735 79.085 169.879 79.221 170.711C79.601 173.016 79.5596 173.023 81.9396 173.023C84.2863 173.023 86.637 173.045 88.9836 173.009C89.733 172.997 90.0276 173.279 90.1503 174C90.5636 176.433 90.4943 176.541 88.065 176.541C85.681 176.541 83.297 176.561 80.9143 176.533C80.1863 176.525 79.9463 176.701 80.0476 177.5C80.3423 179.816 80.3036 179.823 82.6236 179.823C84.9023 179.823 87.1796 179.841 89.4583 179.812C90.2596 179.804 90.7183 180.011 90.6983 180.925C90.685 181.585 90.7783 182.252 90.881 182.907C90.8903 182.959 90.8903 182.999 90.8956 183.047H93.057C93.0436 182.961 93.0316 182.877 93.025 182.779C92.5423 176.465 91.9543 170.157 91.429 163.845C90.969 158.336 90.5476 152.82 90.1023 147.309C89.9863 145.88 89.8356 144.452 89.7196 143.021C89.701 142.801 89.6036 142.489 89.9196 142.387C90.1503 142.313 90.2943 142.535 90.433 142.683C92.793 145.177 95.149 147.675 97.5076 150.171C97.869 150.557 97.9103 151.061 97.981 151.539C98.8423 157.212 99.7076 162.887 100.524 168.569C100.645 169.411 100.97 169.7 101.802 169.681C103.764 169.635 105.729 169.644 107.692 169.676C108.432 169.691 108.742 169.415 108.85 168.671C109.682 162.96 110.544 157.251 111.406 151.541C111.489 150.992 111.594 150.456 112.02 150.013C114.27 147.655 116.496 145.276 118.738 142.911C118.944 142.693 119.141 142.28 119.465 142.405C119.869 142.559 119.685 143.02 119.658 143.339C119.202 148.744 118.722 154.147 118.269 159.552C117.953 163.317 117.676 167.085 117.366 170.855C117.03 174.919 116.664 178.979 116.345 183.047H118.492C118.492 182.988 118.488 182.936 118.492 182.872C118.633 179.825 118.588 179.823 121.648 179.823C123.752 179.823 125.856 179.792 127.957 179.836C128.869 179.857 129.28 179.637 129.276 178.616C129.274 176.541 129.332 176.541 127.178 176.541C124.83 176.541 122.481 176.516 120.134 176.557C119.354 176.571 119.108 176.34 119.129 175.539C119.196 173.023 119.164 173.023 121.702 173.023C124.05 173.023 126.398 172.997 128.746 173.035C129.505 173.045 129.845 172.857 129.97 172.023C130.31 169.736 130.36 169.743 128.01 169.743C125.626 169.741 123.244 169.721 120.861 169.755C119.965 169.763 119.672 169.519 119.73 168.535C119.902 165.599 119.836 166.128 122.36 166.1C124.884 166.069 127.406 166.065 129.929 166.109C130.744 166.124 131.105 165.856 131.3 165.06C131.845 162.823 131.878 162.832 129.589 162.832C126.854 162.831 124.12 162.808 121.388 162.844C120.441 162.855 120.078 162.516 120.334 161.585C120.342 161.552 120.348 161.515 120.353 161.484C120.652 159.163 120.652 159.163 122.964 159.163C126.013 159.163 129.064 159.143 132.112 159.177C132.898 159.188 133.393 158.987 133.765 158.232C134.536 156.657 134.601 156.665 136.286 157.04C143.912 158.753 148.992 163.403 151.816 170.603C153.354 174.523 153.953 178.636 154.197 182.817C154.202 182.9 154.201 182.975 154.198 183.047H167.642L167.696 183.281L184.862 183.323L184.764 183.153C187.042 183.16 189.41 183.132 191.981 183.132" fill="#E19E14"/>
<path fill-rule="evenodd" clip-rule="evenodd" d="M102.049 57.0001L21 183.132H31.956L102.049 57.0001Z" fill="#845F1D"/>
<path fill-rule="evenodd" clip-rule="evenodd" d="M149.077 123.627L160.827 113.634L191.981 183.131L187.743 182.916L149.077 123.627Z" fill="#845F1D"/>
</svg>
