<svg width="364" height="108" viewBox="0 0 364 108" fill="none" xmlns="http://www.w3.org/2000/svg">
<path d="M20.0789 47.2982C19.7696 48.3076 20.3269 48.9796 21.2536 49.0476C23.4189 49.1809 25.7069 48.7116 27.7482 47.9702C28.8616 47.5662 29.7896 47.2982 30.8402 46.8262C31.5829 46.4916 32.0776 46.6249 32.4482 47.3649C32.6962 47.8356 32.3869 48.5756 31.9536 48.9796C30.8402 49.9902 29.6042 50.7969 28.3042 51.4022C25.1509 52.8809 22.9856 53.6222 20.0789 53.6222C18.4096 53.6222 16.6776 52.9489 15.4402 51.4022C15.1922 51.0649 14.9456 50.6609 14.6976 50.2582C13.5842 50.9982 12.7802 51.5369 11.6669 52.2756C9.44025 53.7569 7.02825 55.1036 4.36958 55.8422C2.69891 56.3142 0.844245 55.0356 0.286912 53.2182C-0.207755 51.6036 -0.0224214 49.9222 0.534912 48.5089C2.69891 43.0582 5.91491 38.4849 10.4309 34.9862C12.5336 33.3036 15.0069 32.3622 17.6669 32.3622C18.7176 32.3622 19.7696 32.6982 20.3269 33.0342C20.6976 33.2356 21.0682 33.7742 20.8829 34.5822C20.6349 35.3889 19.5842 35.3222 18.9656 35.2542C15.0696 34.8502 12.1629 36.7342 9.74958 39.2236C7.21491 41.8476 5.17358 44.9422 4.61625 48.8449C4.55491 49.3169 4.74025 50.0556 5.11091 50.3929C5.42025 50.6609 5.97758 50.7969 6.47225 50.6609C9.74958 49.7876 12.2242 47.4996 14.0176 44.4049C14.9456 42.7902 15.9962 41.2422 17.1722 39.8289C18.1616 38.5502 19.9549 39.1569 20.8216 40.6369C21.5629 41.9156 21.3776 43.0582 21.0682 44.1356C20.6976 45.2796 20.3882 46.2209 20.0789 47.2982Z" fill="#845F1D"/>
<path d="M32.2585 54.9011C31.0212 53.5544 30.2798 51.5371 30.2798 49.3171C30.2798 45.5477 31.3305 41.1077 31.9492 38.8197C34.4238 29.4691 38.0105 20.5197 42.2158 11.9757C43.9478 8.40907 46.1132 5.11174 48.7718 2.21974C49.2665 1.68107 49.8852 1.20907 50.5652 0.873071C51.2465 0.470404 51.9878 0.537069 52.6065 1.14374C53.2252 1.68107 53.3492 3.49707 52.7918 4.03707C52.3598 4.50641 52.1118 4.6424 51.5558 4.77573C49.5758 5.51573 48.4625 7.26507 47.4118 9.1504C42.1545 18.3677 38.4438 28.3237 35.5985 38.7531C35.1038 40.5024 34.2372 44.5397 34.1145 47.7024C34.0518 49.6517 34.7945 51.2664 36.1545 51.7384C37.1452 52.0744 37.7625 52.2091 38.5052 52.0744C41.3505 51.5371 44.3185 50.5277 46.9172 49.2491C48.1532 48.6437 49.1438 48.1051 50.1332 47.5664C50.6892 47.2984 51.2465 47.0291 51.8652 46.7597C52.6065 46.4237 53.1638 46.5571 53.4732 47.2984C53.6585 47.7677 53.4105 48.5091 52.9785 48.9131C51.8652 49.9224 50.6278 50.7291 49.3292 51.4691C47.4118 52.5451 45.4945 53.5544 43.5772 54.4291C42.4638 54.9011 41.1652 55.4384 40.0518 55.8424C38.2585 56.4477 35.9078 56.6504 34.5465 56.3144C33.5572 56.0437 32.8145 55.5064 32.2585 54.9011Z" fill="#845F1D"/>
<path d="M57.9838 46.1537C60.1492 44.943 62.0665 43.6644 64.0452 42.1844C64.8492 41.579 65.5918 40.839 66.0865 39.963C66.6425 38.8884 66.2718 38.0804 65.6532 37.6777C64.9105 37.2057 64.0452 37.1377 63.3025 37.6097C60.8292 38.8204 58.6638 40.503 56.7465 42.5884C56.3145 43.1257 56.0052 43.9337 55.9425 44.6737C55.8812 45.0777 56.0665 45.7497 56.4372 46.087C56.8092 46.355 57.4892 46.423 57.9838 46.1537ZM72.5185 34.5817C73.0132 34.9857 73.3838 35.7257 73.5078 36.8697C73.5692 37.407 73.3225 38.283 73.0745 38.7524C69.6732 44.8084 67.3852 51.335 65.0958 57.9284C61.7572 67.6177 57.0558 76.4977 50.4385 84.0337C47.2838 87.599 44.1918 90.3577 40.4812 92.9817C39.4292 93.7217 38.1918 94.1257 37.0785 94.1257C36.4598 94.1257 35.5332 93.655 35.0998 93.1164C34.0478 91.9044 33.5532 89.887 33.8012 88.003C33.9252 86.9937 34.2958 86.3884 35.0998 86.2537C35.8425 86.119 36.4598 86.5217 36.7692 87.3297C37.2638 88.4737 38.0065 89.2137 38.8105 89.2137C39.6772 89.2137 40.7892 88.6764 41.5945 88.0697C44.8718 85.5804 47.8412 82.755 50.3758 79.323C55.2625 72.731 58.6638 65.531 61.5705 57.7924C62.7465 54.631 63.8598 51.0657 64.6638 47.6337C64.9105 46.759 64.4158 46.5577 63.7972 46.895C61.0145 48.4417 58.1692 49.9217 55.2625 51.0657C53.2838 51.8724 51.4892 50.3257 51.1798 47.8364C50.9945 46.6924 51.1798 45.7497 51.7985 44.8084C52.9745 42.9924 54.1492 41.6457 55.8185 40.099C58.1692 37.9457 60.4572 36.0617 63.0558 34.5817C65.6532 33.1017 68.2505 32.967 70.7252 34.2444C71.4665 34.179 72.0852 34.2444 72.5185 34.5817" fill="#845F1D"/>
<path d="M80.9259 50.7292C82.5339 50.1239 84.0179 49.1812 85.1939 47.9039C86.6779 46.3559 87.3579 44.4052 87.4819 42.1852C87.5432 41.1759 86.6779 40.1652 85.6885 39.8972C84.4512 39.5599 83.2139 39.6959 82.3485 40.7039C80.4312 42.7905 79.1325 45.3465 78.3899 48.1719C78.1432 49.1145 78.5752 50.3932 79.4419 50.7292C79.9365 50.9305 80.3699 50.9305 80.9259 50.7292ZM78.6992 38.6865C79.4419 37.5412 80.1219 36.6679 81.1739 35.7252C82.4099 34.6479 83.7712 34.3799 85.3165 34.5826C87.2339 34.8506 88.7805 35.3892 89.9552 36.6679C91.4405 38.2145 92.4912 40.5025 92.2445 42.3185C91.8112 45.9519 90.2032 48.9799 87.5432 51.1332C85.9979 52.4119 84.2659 53.5545 82.5339 54.4292C79.4419 55.9772 76.2259 57.0532 73.8139 54.2959C72.4525 52.7479 73.3805 48.6439 74.8645 45.5479C75.9779 43.2599 77.2765 40.8385 78.6992 38.6865" fill="#845F1D"/>
<path d="M113.084 42.4532C113.455 42.1852 113.827 41.6465 114.012 41.1759C114.259 40.5692 114.073 39.5599 113.455 39.0905C112.899 38.6185 111.167 38.4172 110.301 38.6185C106.095 39.6279 102.508 41.4439 99.5388 44.8092C98.7975 45.7505 98.2401 47.7025 98.8588 48.7105C99.2921 49.5185 100.343 49.4505 100.9 49.2492C105.229 47.5665 109.373 45.2799 113.084 42.4532ZM132.937 47.9705C134.112 47.4319 134.855 47.0292 135.597 46.6932C136.339 46.3559 136.957 46.4905 137.205 47.2305C137.391 47.7025 137.143 48.4412 136.711 48.8452C136.216 49.3159 135.535 49.7879 134.855 50.1919C133.741 50.8639 132.752 51.4025 131.7 51.8719C130.835 52.2759 129.845 52.6799 128.979 53.0172C126.011 54.1599 123.165 54.9679 120.135 55.0359C117.661 55.0359 115.929 54.1599 114.816 52.4785C113.888 50.9985 113.145 48.7105 112.836 46.6932C111.909 47.1625 111.167 47.5665 110.548 47.9039C107.951 49.4505 105.6 50.7972 102.817 52.2092C100.837 53.2185 98.6735 53.8919 96.3855 53.4865C95.2721 53.2852 94.2201 52.2759 93.9108 50.9305C93.2921 48.0372 94.6535 45.6159 96.1988 43.9332C100.405 39.3585 104.549 36.9359 110.796 35.6572C112.465 35.3212 114.507 35.3212 116.239 35.4559C117.352 35.5239 117.971 35.0519 118.527 33.9092C119.269 32.4959 119.888 31.0839 120.505 29.6025C122.176 25.4305 124.279 21.5292 126.939 17.9639C127.495 17.2225 128.052 16.7532 128.732 16.5505C129.351 16.3492 130.279 16.7532 130.587 17.3585C131.268 18.6359 131.02 20.0492 130.525 21.2599C127.743 27.5172 124.773 33.7065 120.753 39.2239C120.135 40.0985 119.764 40.9065 119.269 41.7812C118.217 43.7319 117.723 45.7505 118.032 47.9705C118.279 49.6519 119.516 50.7292 120.939 50.8639C122.113 50.9985 123.351 50.9305 124.588 50.7292C126.567 50.3932 128.237 49.7879 129.907 49.2492C130.896 48.9132 131.887 48.4412 132.937 47.9705Z" fill="#845F1D"/>
<path d="M140.971 50.7292C142.579 50.1239 144.063 49.1812 145.239 47.9039C146.723 46.3559 147.403 44.4052 147.527 42.1852C147.589 41.1759 146.723 40.1652 145.734 39.8972C144.497 39.5599 143.259 39.6959 142.394 40.7039C140.477 42.7905 139.178 45.3465 138.435 48.1719C138.189 49.1145 138.621 50.3932 139.487 50.7292C139.982 50.9305 140.415 50.9305 140.971 50.7292ZM138.745 38.6865C139.487 37.5412 140.167 36.6679 141.219 35.7252C142.455 34.6479 143.817 34.3799 145.362 34.5826C147.279 34.8506 148.826 35.3892 150.001 36.6679C151.486 38.2145 152.537 40.5025 152.29 42.3185C151.857 45.9519 150.249 48.9799 147.589 51.1332C146.043 52.4119 144.311 53.5545 142.579 54.4292C139.487 55.9772 136.271 57.0532 133.859 54.2959C132.498 52.7479 133.426 48.6439 134.91 45.5479C136.023 43.2599 137.322 40.8385 138.745 38.6865" fill="#845F1D"/>
<path d="M179.191 54.2956C177.335 54.2956 175.605 53.4876 174.367 51.7383C173.13 50.0556 171.831 48.1716 170.779 46.4903C170.223 45.6156 169.666 45.2796 169.11 45.2796C168.058 45.2796 166.822 46.4903 165.894 47.6343C164.223 49.7196 162.739 51.7383 161.193 53.9583C160.451 55.0356 160.018 55.4383 159.275 55.9103C158.101 56.7169 156.617 57.4569 155.503 57.4569C154.514 57.4569 153.647 56.4476 153.833 55.3716C155.009 49.6529 156.369 43.8663 157.854 38.2823C158.039 37.5423 158.595 36.7343 159.462 36.7343C160.885 36.7343 161.07 38.0129 161.07 39.1569C161.07 40.5689 161.007 41.6463 160.946 42.7903C160.885 44.1356 160.822 45.6836 160.761 47.2303C163.482 44.5396 166.265 41.9156 168.615 39.8289C169.295 39.2236 170.099 38.9543 170.842 38.9543C172.265 38.9543 173.254 40.1649 173.997 41.1756C175.233 42.9249 176.346 45.0103 177.522 46.7596C179.13 49.0463 180.799 49.6529 183.335 48.9129C184.634 48.5756 185.871 48.1716 187.046 47.7676C188.035 47.4329 188.963 47.0289 189.83 46.5569C190.447 46.2889 191.005 46.3556 191.314 46.8263C191.623 47.3649 191.314 48.1049 190.819 48.6436C190.015 49.5183 189.087 50.3249 188.098 50.9316C186.985 51.6703 185.871 52.3436 184.695 52.8809C182.965 53.7569 180.985 54.2956 179.191 54.2956Z" fill="#845F1D"/>
<path d="M217.528 41.31C217.157 42.1166 217.095 43.194 217.157 44.0673C217.776 43.934 218.58 43.53 219.197 43.126C219.94 42.6553 220.683 42.05 221.424 41.242C222.105 40.5033 222.661 39.5606 222.847 38.8886C223.219 37.6766 221.981 37.3393 221.239 37.6766C219.321 38.4846 218.332 39.5606 217.528 41.31ZM223.219 33.034C224.084 33.034 224.888 33.3713 225.568 34.0433C227.671 36.3313 227.733 37.8793 226.435 40.4353C225.321 42.6553 223.836 44.27 222.043 45.6833C220.929 46.558 219.755 47.298 218.703 47.8366C219.384 50.1233 222.352 50.5953 225.073 50.5953C226.805 50.5953 228.661 50.326 230.516 49.922C233.052 49.3166 235.403 48.442 237.629 47.5006C238.309 47.23 238.804 46.9606 239.299 46.6926C240.041 46.3553 240.66 46.4913 240.907 47.23C241.092 47.702 240.845 48.442 240.412 48.8446C239.732 49.518 239.052 50.0566 238.371 50.4593C236.083 51.806 233.547 53.0833 231.135 53.8246C228.228 54.6993 225.073 55.3713 222.105 55.3713C219.631 55.3713 217.28 54.766 215.549 53.4873C213.445 51.8726 212.58 49.1806 212.58 46.6246C212.58 43.126 214.003 39.6273 216.167 37.274C217.776 35.5913 220.683 33.034 223.219 33.034" fill="#845F1D"/>
<path d="M245.417 46.1537C247.583 44.943 249.5 43.6644 251.479 42.1844C252.283 41.579 253.025 40.839 253.52 39.963C254.076 38.8884 253.705 38.0804 253.087 37.6777C252.344 37.2057 251.479 37.1377 250.736 37.6097C248.263 38.8204 246.097 40.503 244.18 42.5884C243.748 43.1257 243.439 43.9337 243.376 44.6737C243.315 45.0777 243.5 45.7497 243.871 46.087C244.243 46.355 244.923 46.423 245.417 46.1537ZM259.952 34.5817C260.447 34.9857 260.817 35.7257 260.941 36.8697C261.003 37.407 260.756 38.283 260.508 38.7524C257.107 44.8084 254.819 51.335 252.529 57.9284C249.191 67.6177 244.489 76.4977 237.872 84.0337C234.717 87.599 231.625 90.3577 227.915 92.9817C226.863 93.7217 225.625 94.1257 224.512 94.1257C223.893 94.1257 222.967 93.655 222.533 93.1164C221.481 91.9044 220.987 89.887 221.235 88.003C221.359 86.9937 221.729 86.3884 222.533 86.2537C223.276 86.119 223.893 86.5217 224.203 87.3297C224.697 88.4737 225.44 89.2137 226.244 89.2137C227.111 89.2137 228.223 88.6764 229.028 88.0697C232.305 85.5804 235.275 82.755 237.809 79.323C242.696 72.731 246.097 65.531 249.004 57.7924C250.18 54.631 251.293 51.0657 252.097 47.6337C252.344 46.759 251.849 46.5577 251.231 46.895C248.448 48.4417 245.603 49.9217 242.696 51.0657C240.717 51.8724 238.923 50.3257 238.613 47.8364C238.428 46.6924 238.613 45.7497 239.232 44.8084C240.408 42.9924 241.583 41.6457 243.252 40.099C245.603 37.9457 247.891 36.0617 250.489 34.5817C253.087 33.1017 255.684 32.967 258.159 34.2444C258.9 34.179 259.519 34.2444 259.952 34.5817" fill="#845F1D"/>
<path d="M278.132 24.2878C277.822 25.5665 276.4 26.1718 275.349 25.3651C274.112 24.4225 273.432 23.0771 273.678 21.3945C273.741 20.9905 274.112 20.4531 274.482 20.2518C276.585 19.0385 278.317 20.1838 278.317 22.7398C278.317 23.2105 278.256 23.7505 278.132 24.2878ZM275.844 53.6905C272.813 55.2371 269.782 55.9771 266.504 55.8425C264.34 55.7745 262.854 54.5638 262.05 52.3438C261.246 50.2585 261.37 48.3731 262.36 46.2211C263.412 43.9331 264.71 41.5798 266.009 39.2918C266.628 38.2145 267.802 37.7438 268.793 38.3491C269.658 38.8878 269.844 40.0985 269.473 40.8385C268.793 42.6545 268.112 44.4051 267.308 46.2211C266.876 47.1625 266.752 48.3078 266.876 49.3158C267.061 50.8638 268.73 51.8718 269.968 51.6038C273.493 50.7971 276.709 49.5865 280.234 47.9705C281.409 47.4318 282.152 47.0291 282.894 46.6931C283.636 46.3558 284.254 46.4905 284.502 47.2305C284.688 47.7025 284.44 48.4411 284.008 48.8451C283.513 49.3158 282.832 49.7878 282.152 50.1918C279.988 51.4691 278.07 52.5451 275.844 53.6905" fill="#845F1D"/>
<path d="M295.693 10.5625C296.373 8.87984 297.859 5.6505 299.095 3.36384C299.961 1.8145 301.012 0.738509 301.94 0.873176C302.744 0.941176 303.115 1.68117 303.239 2.4225C303.548 4.43984 303.239 6.25718 301.816 7.53451C299.776 9.35185 298.724 11.5718 297.735 14.0612C295.323 20.1838 293.096 26.3732 290.993 32.6305C290.499 34.1785 291.611 33.9772 292.848 34.3118C294.765 34.8505 296.373 35.6572 297.672 36.8692C298.785 37.8785 299.467 39.4252 299.404 41.0398C299.28 43.7998 297.735 45.8852 296.064 47.8358C294.765 49.3158 293.281 50.7292 291.673 51.8065C291.24 52.0745 290.684 52.2092 290.189 52.0745C288.581 51.6705 288.457 50.3252 288.519 49.2492C288.581 48.2398 288.767 47.2305 289.013 46.1532C289.323 44.9425 289.632 44.4718 291.116 44.8092C292.229 45.0785 292.911 44.8092 293.591 43.8665C294.024 43.2598 294.332 42.5892 294.519 41.9158C294.828 40.7038 294.519 39.6278 293.528 39.0905C292.848 38.7532 292.107 38.6185 291.364 38.4838C289.571 38.2825 288.333 39.4932 287.9 40.8385C283.571 53.9585 280.725 63.9825 278.191 77.8438C277.695 80.6012 276.891 85.1092 276.829 89.6172C276.768 94.7985 277.572 99.9118 280.725 101.997C282.025 102.872 283.447 103.276 284.623 103.276C285.488 103.276 286.355 103.075 287.281 102.671C287.963 102.401 288.643 101.929 289.385 101.46C290.127 100.988 290.931 100.787 291.303 101.796C291.549 102.401 291.303 103.075 290.621 103.813C288.581 105.9 286.045 106.977 283.261 107.043C278.004 107.043 274.851 102.805 273.86 98.4985C272.315 91.2998 273.365 83.8305 274.603 76.9012C276.087 68.6265 278.191 60.7545 280.355 52.8145C281.839 47.4318 283.571 41.9825 285.488 36.8025C288.767 27.7865 292.107 19.3758 295.693 10.5625Z" fill="#845F1D"/>
<path d="M308.678 55.7084C306.513 55.7084 304.101 55.3711 302.741 53.8924C301.009 52.0084 300.266 49.0471 301.194 46.4231C301.566 45.4137 301.998 44.4711 302.556 43.5297C305.277 39.0217 311.648 33.9764 316.472 32.0924C317.894 31.5537 319.564 31.6217 320.616 32.6977C322.718 34.7164 323.274 38.6857 321.666 40.7044C320.368 42.3191 319.378 43.4617 317.832 44.9431C317.337 45.4137 316.286 45.4817 315.668 44.7404C315.173 44.1351 315.049 43.3964 315.605 42.5884C316.409 41.5124 316.966 40.7044 317.646 39.5604C318.512 38.1471 318.884 36.6004 318.326 35.9951C317.522 35.0524 315.914 35.5911 314.801 36.1284C311.77 37.6097 309.482 39.8297 307.626 42.7911C307.07 43.7324 306.637 44.7404 306.39 45.6831C305.462 49.1804 306.452 51.6711 309.73 51.8724C311.833 52.0084 314.43 51.4684 316.472 50.8631C319.44 49.9217 322.161 48.7111 324.697 47.5004C325.377 47.1631 325.934 46.8951 326.553 46.6924C327.294 46.4231 327.913 46.4911 328.161 47.2311C328.346 47.7017 328.098 48.4417 327.666 48.8457C327.172 49.3164 326.614 49.7884 325.934 50.1911C324.078 51.4031 322.533 52.2764 320.862 52.9497C316.966 54.7657 312.946 55.7084 308.678 55.7084Z" fill="#845F1D"/>
<path d="M341.701 24.2878C341.392 25.5665 339.969 26.1718 338.918 25.3651C337.681 24.4225 337.001 23.0771 337.248 21.3945C337.31 20.9905 337.681 20.4531 338.052 20.2518C340.154 19.0385 341.886 20.1838 341.886 22.7398C341.886 23.2105 341.825 23.7505 341.701 24.2878ZM339.413 53.6905C336.382 55.2371 333.352 55.9771 330.073 55.8425C327.909 55.7745 326.424 54.5638 325.62 52.3438C324.816 50.2585 324.94 48.3731 325.929 46.2211C326.981 43.9331 328.28 41.5798 329.578 39.2918C330.197 38.2145 331.372 37.7438 332.362 38.3491C333.228 38.8878 333.413 40.0985 333.042 40.8385C332.362 42.6545 331.681 44.4051 330.877 46.2211C330.445 47.1625 330.321 48.3078 330.445 49.3158C330.63 50.8638 332.3 51.8718 333.537 51.6038C337.062 50.7971 340.278 49.5865 343.804 47.9705C344.978 47.4318 345.721 47.0291 346.464 46.6931C347.205 46.3558 347.824 46.4905 348.072 47.2305C348.257 47.7025 348.009 48.4411 347.577 48.8451C347.082 49.3158 346.401 49.7878 345.721 50.1918C343.557 51.4691 341.64 52.5451 339.413 53.6905" fill="#845F1D"/>
<path d="M351.841 50.7292C353.449 50.1239 354.933 49.1812 356.109 47.9039C357.593 46.3559 358.273 44.4052 358.397 42.1852C358.458 41.1759 357.593 40.1652 356.604 39.8972C355.366 39.5599 354.129 39.6959 353.264 40.7039C351.346 42.7905 350.048 45.3465 349.305 48.1719C349.058 49.1145 349.49 50.3932 350.357 50.7292C350.852 50.9305 351.285 50.9305 351.841 50.7292ZM349.614 38.6865C350.357 37.5412 351.037 36.6679 352.089 35.7252C353.325 34.6479 354.686 34.3799 356.232 34.5826C358.149 34.8506 359.696 35.3892 360.87 36.6679C362.356 38.2145 363.406 40.5025 363.16 42.3185C362.726 45.9519 361.118 48.9799 358.458 51.1332C356.913 52.4119 355.181 53.5545 353.449 54.4292C350.357 55.9772 347.141 57.0532 344.729 54.2959C343.368 52.7479 344.296 48.6439 345.78 45.5479C346.893 43.2599 348.192 40.8385 349.614 38.6865" fill="#845F1D"/>
<path fill-rule="evenodd" clip-rule="evenodd" d="M147.297 26.0482C147.297 26.0482 144.63 29.1575 149.52 29.6029C149.52 29.6029 165.074 25.6042 147.297 26.0482Z" fill="#231F20"/>
</svg>
