<svg width="364" height="226" viewBox="0 0 364 226" fill="none" xmlns="http://www.w3.org/2000/svg">
<path fill-rule="evenodd" clip-rule="evenodd" d="M164.389 0.000149933L94.2954 126.047L254.321 126.132L221.406 71.0455L207.246 69.6295L164.389 0.000149933Z" fill="#845F1D"/>
<path fill-rule="evenodd" clip-rule="evenodd" d="M230.035 61.7554C239.034 82.87 248.639 103.569 258.321 124.23C258.73 125.099 259.851 126.202 260.665 126.222C267.514 126.378 274.37 126.31 282.271 126.31C264.426 104.258 247.231 83.006 230.035 61.7554Z" fill="#E19E14"/>
<path fill-rule="evenodd" clip-rule="evenodd" d="M210.264 89.9187C209.196 90.52 208.126 91.1174 207.06 91.728C206.676 91.948 206.267 91.9747 205.843 91.9747C198.902 91.9734 191.959 91.9574 185.019 91.9934C184.016 91.9987 183.686 91.6414 183.826 90.7027C184.208 88.1387 183.671 88.3627 186.287 88.3507C189.931 88.336 193.578 88.3467 197.224 88.3467C201.082 88.3467 204.938 88.344 208.794 88.3507C209.212 88.352 209.636 88.372 210.047 88.444C210.498 88.524 210.632 88.916 210.718 89.2987C210.798 89.6507 210.51 89.78 210.264 89.9187ZM201.028 96.1267C200.718 96.4107 200.318 96.6174 200.078 96.9494C198.778 98.744 196.998 99.028 194.915 98.9454C191.414 98.808 187.904 98.912 184.399 98.9054C183.239 98.904 183.11 98.7454 183.235 97.6254C183.499 95.244 183.499 95.244 185.95 95.244H192.68C195.344 95.244 198.008 95.2414 200.672 95.2534C200.963 95.2547 201.382 95.104 201.502 95.492C201.592 95.784 201.228 95.944 201.028 96.1267V96.1267ZM178.303 86.6934C176.743 88.6414 174.962 90.376 173.014 91.9347C172.603 92.2627 172.392 92.6134 172.316 93.1494C171.507 98.8307 170.654 104.504 169.852 110.188C169.743 110.969 169.442 111.307 168.654 111.285C167.602 111.253 166.551 111.252 165.5 111.285C164.692 111.312 164.33 111.024 164.211 110.167C163.422 104.519 162.564 98.8814 161.766 93.2347C161.679 92.62 161.422 92.2334 160.962 91.856C154.431 86.496 150.247 79.7334 148.774 71.3627C148.219 68.2067 148.09 65.0374 148.467 61.8454C148.563 61.0387 149.006 60.716 149.711 60.5134C152.38 59.7454 155.116 59.3267 157.868 59.0747C160.935 58.7934 164.011 58.592 167.098 58.616C172.628 58.7547 178.156 58.948 183.566 60.2974C185.416 60.7574 185.472 60.7667 185.634 62.7054C186.378 71.6694 183.922 79.6707 178.303 86.6934ZM148.326 98.9067C144.575 98.9067 140.826 98.8934 137.074 98.9187C136.354 98.9267 135.811 98.716 135.304 98.2C134.594 97.4787 133.8 96.836 133.062 96.14C132.854 95.9414 132.422 95.8027 132.602 95.4187C132.736 95.1334 133.107 95.252 133.375 95.2507C136.074 95.244 138.772 95.244 141.471 95.244C144.1 95.244 146.728 95.2694 149.358 95.2334C150.254 95.2214 150.68 95.4467 150.715 96.4574C150.798 98.9094 150.848 98.9067 148.326 98.9067ZM125.916 91.0974C125.294 90.652 124.572 90.344 123.9 89.968C123.602 89.8014 123.226 89.676 123.374 89.196C123.492 88.808 123.67 88.468 124.122 88.416C124.503 88.372 124.888 88.3507 125.274 88.3507C129.095 88.344 132.916 88.3467 136.736 88.3467C140.664 88.3467 144.591 88.3734 148.516 88.3307C149.584 88.3174 150.048 88.5867 150.154 89.7614C150.35 91.9814 150.44 91.9747 148.211 91.9747C141.9 91.9747 135.592 91.9534 129.282 91.9947C128.046 92.0027 126.942 91.8267 125.916 91.0974V91.0974ZM125.568 83.8987C126.85 81.0587 125.943 81.5534 129.17 81.5387C135.443 81.5094 141.715 81.5294 147.988 81.5307C149.412 81.5307 149.412 81.536 149.582 82.972C149.843 85.1694 149.843 85.1694 147.603 85.1694H137.404C133.759 85.1694 130.115 85.172 126.47 85.168C125.138 85.1667 125.046 85.0534 125.568 83.8987ZM128.418 77.1094C129.746 74.0307 128.954 74.6374 132.023 74.6067C136.399 74.5667 140.776 74.616 145.152 74.5814C145.984 74.5747 146.551 74.7987 146.927 75.5587C147.19 76.0907 147.558 76.568 147.856 77.0814C148.024 77.3694 148.396 77.6414 148.207 78.0054C148.016 78.3707 147.583 78.2534 147.248 78.2534C144.622 78.264 141.996 78.26 139.371 78.26H138.215C135.206 78.2587 132.194 78.2667 129.182 78.2547C128.072 78.2507 127.98 78.1227 128.418 77.1094V77.1094ZM131.282 70.2707C132.659 67.1254 131.834 67.7267 135.058 67.6774C137.44 67.6427 139.824 67.6987 142.206 67.6574C143.118 67.64 143.674 67.8547 143.778 68.8654C143.832 69.376 144.042 69.884 144.252 70.3614C144.599 71.1454 144.299 71.3547 143.542 71.3467C141.614 71.3254 139.686 71.34 137.759 71.3387C135.832 71.3387 133.904 71.32 131.978 71.3467C131.104 71.36 130.942 71.0427 131.282 70.2707V70.2707ZM134.219 63.2774C135.51 60.2934 134.776 60.8054 137.962 60.768C140.275 60.74 142.588 60.764 144.903 60.7614C146.391 60.7587 146.396 60.756 146.398 59.2214C146.4 56.6614 146.399 54.1027 146.399 51.5427C146.399 48.8787 146.416 46.2147 146.387 43.552C146.382 42.8187 146.583 42.2774 147.22 41.8694C148.076 41.324 148.9 40.7267 149.73 40.14C150.304 39.7347 150.627 39.8027 150.627 40.5734C150.626 45.972 150.622 51.3694 150.63 56.768C150.631 57.4 150.336 57.692 149.748 57.8747C147.024 58.7227 146.41 59.812 147.187 62.5934C147.436 63.484 147.278 63.764 146.367 64.028C145.156 64.3787 143.959 64.4147 142.736 64.412C140.142 64.4107 137.548 64.4174 134.955 64.4094C133.831 64.4054 133.767 64.3254 134.219 63.2774V63.2774ZM137.012 56.6187C137.027 56.5867 137.04 56.5547 137.052 56.5214C137.984 53.968 137.984 53.968 140.739 53.9667C142.002 53.9667 143.263 53.9934 144.523 53.96C145.22 53.94 145.527 54.1787 145.575 54.908C145.746 57.4734 145.756 57.4814 143.211 57.4814H141.107C139.951 57.48 138.795 57.4667 137.638 57.4867C136.975 57.4974 136.696 57.288 137.012 56.6187ZM139.86 49.8254C139.876 49.7947 139.883 49.7587 139.9 49.728C140.344 48.8667 140.359 47.5627 141.227 47.1947C142.358 46.7147 143.711 47.0574 144.971 47.0534C145.004 47.0534 145.047 47.056 145.071 47.0734C146.038 47.836 145.42 48.8827 145.543 49.7934C145.614 50.3134 145.332 50.6694 144.752 50.6734C144.016 50.6787 143.28 50.6734 142.544 50.6734V50.68C141.843 50.68 141.142 50.6814 140.44 50.6787C139.839 50.676 139.583 50.4307 139.86 49.8254V49.8254ZM153.911 43.5027C153.911 41.8574 153.931 40.2107 153.904 38.5667C153.894 37.96 154.108 37.576 154.666 37.34C155.471 37 156.271 36.6454 157.058 36.2627C157.855 35.876 158.038 36.2254 158.035 36.9654C158.02 40.0814 158.028 43.1974 158.028 46.3134C158.028 49.3614 157.998 52.408 158.046 55.452C158.06 56.452 157.699 56.8627 156.711 56.836C156.191 56.8214 155.664 56.9054 155.15 56.9947C154.26 57.1467 153.886 56.8694 153.896 55.8987C153.934 51.7667 153.911 47.636 153.911 43.5027V43.5027ZM161.294 35.664C161.294 35.6307 161.294 35.5947 161.298 35.56C161.374 34.7814 162.847 34.2027 164.58 34.1987C165.643 34.1974 165.4 34.956 165.403 35.5294C165.42 38.7894 165.411 42.0467 165.411 45.304C165.411 48.528 165.414 51.7507 165.411 54.9734C165.41 56.4067 165.403 56.4027 163.93 56.4187C163.37 56.4254 162.804 56.4094 162.251 56.4787C161.574 56.56 161.284 56.3374 161.287 55.6334C161.298 48.976 161.294 42.3214 161.294 35.664V35.664ZM168.67 45.2347C168.668 41.9774 168.664 38.72 168.671 35.464C168.675 34.212 168.868 34.032 170.094 34.28C173.37 34.9414 172.754 34.4054 172.774 37.4214C172.81 43.3387 172.784 49.256 172.783 55.176C172.782 56.5094 172.776 56.504 171.447 56.44C170.923 56.4134 170.394 56.38 169.874 56.4254C168.956 56.504 168.644 56.1294 168.654 55.2147C168.694 51.8894 168.67 48.5614 168.67 45.2347V45.2347ZM176.059 46.3547C176.059 43.34 176.051 40.328 176.062 37.3147C176.067 36.024 176.192 35.948 177.384 36.4254C180.292 37.588 180.292 37.588 180.292 40.6987C180.292 45.6734 180.295 50.6494 180.291 55.624C180.29 57.044 180.15 57.1574 178.786 56.9467C178.544 56.9107 178.302 56.8494 178.06 56.8494C175.732 56.8387 176.072 56.5507 176.062 54.6574C176.047 51.8894 176.059 49.1214 176.059 46.3547ZM183.708 39.9654C184.055 39.7414 184.339 40.1534 184.616 40.3294C187.691 42.3014 187.69 42.3067 187.69 45.9734V51.5454C187.69 54.104 187.687 56.6627 187.69 59.2214C187.691 60.7574 187.695 60.7614 189.279 60.7614C192.047 60.7627 194.816 60.7867 197.586 60.748C198.435 60.736 198.924 61.0054 199.267 61.8174C200.368 64.424 200.396 64.412 197.534 64.412C195.256 64.412 192.976 64.3627 190.702 64.432C189.516 64.468 188.422 64.168 187.3 63.9107C186.766 63.788 186.618 63.5067 186.772 63.0014C186.896 62.5987 187.006 62.192 187.09 61.78C187.471 59.896 186.776 58.5534 184.923 58.076C183.747 57.772 183.527 57.2014 183.54 56.092C183.604 51.0467 183.566 46 183.575 40.9534C183.575 40.616 183.394 40.168 183.708 39.9654V39.9654ZM191.087 53.9667C192.383 53.9667 193.682 53.9987 194.976 53.956C195.675 53.9307 196.095 54.1694 196.32 54.8374C196.51 55.4 196.752 55.9467 197.007 56.484C197.343 57.1907 197.206 57.5174 196.362 57.4894C195.243 57.4534 194.122 57.4814 193 57.48C191.879 57.4774 190.759 57.46 189.638 57.4867C189.018 57.5 188.776 57.2334 188.716 56.628C188.459 54.0854 188.552 53.9667 191.087 53.9667V53.9667ZM188.794 47.5387C188.831 47.22 189.066 47.0654 189.382 47.0534C189.696 47.04 190.012 47.032 190.326 47.032C193.276 47.0227 193.26 47.0294 194.204 49.78C194.439 50.4667 194.215 50.6854 193.568 50.6827C192.903 50.68 192.239 50.6814 191.575 50.6814V50.688C191.364 50.688 191.151 50.7134 190.946 50.6827C190.247 50.5827 189.294 51.0574 188.899 50.324C188.456 49.5027 188.688 48.4774 188.794 47.5387V47.5387ZM202.116 68.616C203.274 71.352 203.299 71.34 200.303 71.34H196.308C194.416 71.34 192.523 71.3187 190.631 71.3507C189.772 71.364 189.415 71.132 189.847 70.26C189.956 70.0414 190.03 69.8054 190.104 69.5734C190.734 67.6707 190.734 67.6707 192.703 67.6707C195.331 67.6707 197.96 67.6907 200.588 67.66C201.35 67.6507 201.802 67.8747 202.116 68.616V68.616ZM205.063 75.6427C206.132 78.2747 206.17 78.26 203.315 78.26H195.859C192.847 78.2587 189.838 78.2627 186.827 78.2534C186.491 78.2534 186.058 78.372 185.866 78.0107C185.67 77.6467 186.083 77.3934 186.202 77.0827C187.003 74.9827 188.499 74.4427 190.7 74.5414C194.927 74.7334 199.168 74.616 203.404 74.5827C204.251 74.576 204.724 74.812 205.063 75.6427V75.6427ZM208.012 82.7014C208.142 83.1707 208.359 83.6214 208.579 84.0574C208.996 84.884 208.747 85.1854 207.842 85.1774C205.003 85.152 202.164 85.1694 199.326 85.1694H196.594C192.983 85.1694 189.374 85.1707 185.763 85.168C184.399 85.1667 184.399 85.16 184.439 83.844C184.511 81.5294 184.511 81.5294 186.783 81.5294C193.266 81.5294 199.75 81.5507 206.234 81.508C207.191 81.5027 207.755 81.7654 208.012 82.7014V82.7014ZM254.32 126.132C243.774 102.607 233.608 79.928 223.166 56.6334C219.028 60.1534 215.184 63.42 211.416 66.6267L164.388 2.78745e-05L94.2951 126.047H117.538C117.542 125.935 117.546 125.817 117.552 125.677C117.914 119.557 119.048 113.651 122.619 108.471C125.899 103.713 130.503 101.029 136.091 99.8854C136.943 99.7107 137.483 100.053 137.738 100.795C138.136 101.956 138.91 102.216 140.075 102.191C143.403 102.113 146.734 102.188 150.062 102.147C150.974 102.137 151.29 102.471 151.323 103.364C151.419 105.832 151.447 105.832 148.94 105.832C146.276 105.832 143.612 105.851 140.95 105.821C140.132 105.813 139.896 106.044 140.138 106.869C140.912 109.515 140.259 109.055 142.99 109.085C145.514 109.119 148.039 109.128 150.559 109.077C151.495 109.055 151.932 109.357 151.927 110.308C151.915 112.88 152.711 112.735 149.678 112.741C147.26 112.747 144.84 112.755 142.423 112.74C141.724 112.735 141.424 112.879 141.56 113.711C141.94 116.016 141.899 116.023 144.279 116.023C146.626 116.023 148.976 116.045 151.323 116.009C152.072 115.997 152.367 116.279 152.49 117C152.903 119.433 152.834 119.541 150.404 119.541C148.02 119.541 145.636 119.561 143.254 119.533C142.526 119.525 142.286 119.701 142.387 120.5C142.682 122.816 142.643 122.823 144.963 122.823C147.242 122.823 149.519 122.841 151.798 122.812C152.599 122.804 153.058 123.011 153.038 123.925C153.024 124.585 153.118 125.252 153.22 125.907C153.23 125.959 153.23 125.999 153.235 126.047H155.396C155.383 125.961 155.371 125.877 155.364 125.779C154.882 119.465 154.294 113.157 153.768 106.845C153.308 101.336 152.887 95.82 152.442 90.3094C152.326 88.88 152.175 87.452 152.059 86.0214C152.04 85.8014 151.943 85.4894 152.259 85.3867C152.49 85.3134 152.634 85.5347 152.772 85.6827C155.132 88.1774 157.488 90.6747 159.847 93.1707C160.208 93.5574 160.25 94.0614 160.32 94.5387C161.182 100.212 162.047 105.887 162.863 111.569C162.984 112.411 163.31 112.7 164.142 112.681C166.103 112.635 168.068 112.644 170.031 112.676C170.771 112.691 171.082 112.415 171.19 111.671C172.022 105.96 172.883 100.251 173.746 94.5414C173.828 93.992 173.934 93.456 174.359 93.0134C176.61 90.6547 178.835 88.276 181.078 85.9107C181.283 85.6934 181.48 85.28 181.804 85.4054C182.208 85.5587 182.024 86.02 181.998 86.3387C181.542 91.744 181.062 97.1467 180.608 102.552C180.292 106.317 180.015 110.085 179.706 113.855C179.37 117.919 179.003 121.979 178.684 126.047H180.831C180.831 125.988 180.827 125.936 180.831 125.872C180.972 122.825 180.927 122.823 183.987 122.823C186.091 122.823 188.195 122.792 190.296 122.836C191.208 122.857 191.619 122.637 191.615 121.616C191.614 119.541 191.671 119.541 189.518 119.541C187.17 119.541 184.82 119.516 182.474 119.557C181.694 119.571 181.447 119.34 181.468 118.539C181.535 116.023 181.503 116.023 184.042 116.023C186.39 116.023 188.738 115.997 191.086 116.035C191.844 116.045 192.184 115.857 192.31 115.023C192.65 112.736 192.699 112.743 190.35 112.743C187.966 112.741 185.583 112.721 183.2 112.755C182.304 112.763 182.011 112.519 182.07 111.535C182.242 108.599 182.175 109.128 184.699 109.1C187.223 109.069 189.746 109.065 192.268 109.109C193.083 109.124 193.444 108.856 193.639 108.06C194.184 105.823 194.218 105.832 191.928 105.832C189.194 105.831 186.459 105.808 183.727 105.844C182.78 105.855 182.418 105.516 182.674 104.585C182.682 104.552 182.687 104.515 182.692 104.484C182.991 102.163 182.991 102.163 185.303 102.163C188.352 102.163 191.403 102.143 194.451 102.177C195.238 102.188 195.732 101.987 196.104 101.232C196.875 99.6574 196.94 99.6654 198.626 100.04C206.251 101.753 211.331 106.403 214.155 113.603C215.694 117.523 216.292 121.636 216.536 125.817C216.542 125.9 216.54 125.975 216.538 126.047H229.982L230.035 126.281L247.202 126.323L247.103 126.153C249.382 126.16 251.75 126.132 254.32 126.132" fill="#E19E14"/>
<path fill-rule="evenodd" clip-rule="evenodd" d="M164.389 0.000149933L83.3394 126.132H94.2954L164.389 0.000149933Z" fill="#845F1D"/>
<path fill-rule="evenodd" clip-rule="evenodd" d="M211.417 66.627L223.166 56.6337L254.321 126.131L250.082 125.916L211.417 66.627Z" fill="#845F1D"/>
<path d="M20.0789 165.298C19.7696 166.308 20.3269 166.98 21.2536 167.048C23.4189 167.181 25.7069 166.712 27.7482 165.97C28.8616 165.566 29.7896 165.298 30.8402 164.826C31.5829 164.492 32.0776 164.625 32.4482 165.365C32.6962 165.836 32.3869 166.576 31.9536 166.98C30.8402 167.99 29.6042 168.797 28.3042 169.402C25.1509 170.881 22.9856 171.622 20.0789 171.622C18.4096 171.622 16.6776 170.949 15.4402 169.402C15.1922 169.065 14.9456 168.661 14.6976 168.258C13.5842 168.998 12.7802 169.537 11.6669 170.276C9.44025 171.757 7.02825 173.104 4.36958 173.842C2.69891 174.314 0.844245 173.036 0.286912 171.218C-0.207755 169.604 -0.0224214 167.922 0.534912 166.509C2.69891 161.058 5.91491 156.485 10.4309 152.986C12.5336 151.304 15.0069 150.362 17.6669 150.362C18.7176 150.362 19.7696 150.698 20.3269 151.034C20.6976 151.236 21.0682 151.774 20.8829 152.582C20.6349 153.389 19.5842 153.322 18.9656 153.254C15.0696 152.85 12.1629 154.734 9.74958 157.224C7.21491 159.848 5.17358 162.942 4.61625 166.845C4.55491 167.317 4.74025 168.056 5.11091 168.393C5.42025 168.661 5.97758 168.797 6.47225 168.661C9.74958 167.788 12.2242 165.5 14.0176 162.405C14.9456 160.79 15.9962 159.242 17.1722 157.829C18.1616 156.55 19.9549 157.157 20.8216 158.637C21.5629 159.916 21.3776 161.058 21.0682 162.136C20.6976 163.28 20.3882 164.221 20.0789 165.298Z" fill="#845F1D"/>
<path d="M32.2585 172.901C31.0212 171.554 30.2798 169.537 30.2798 167.317C30.2798 163.548 31.3305 159.108 31.9492 156.82C34.4238 147.469 38.0105 138.52 42.2158 129.976C43.9478 126.409 46.1132 123.112 48.7718 120.22C49.2665 119.681 49.8852 119.209 50.5652 118.873C51.2465 118.47 51.9878 118.537 52.6065 119.144C53.2252 119.681 53.3492 121.497 52.7918 122.037C52.3598 122.506 52.1118 122.642 51.5558 122.776C49.5758 123.516 48.4625 125.265 47.4118 127.15C42.1545 136.368 38.4438 146.324 35.5985 156.753C35.1038 158.502 34.2372 162.54 34.1145 165.702C34.0518 167.652 34.7945 169.266 36.1545 169.738C37.1452 170.074 37.7625 170.209 38.5052 170.074C41.3505 169.537 44.3185 168.528 46.9172 167.249C48.1532 166.644 49.1438 166.105 50.1332 165.566C50.6892 165.298 51.2465 165.029 51.8652 164.76C52.6065 164.424 53.1638 164.557 53.4732 165.298C53.6585 165.768 53.4105 166.509 52.9785 166.913C51.8652 167.922 50.6278 168.729 49.3292 169.469C47.4118 170.545 45.4945 171.554 43.5772 172.429C42.4638 172.901 41.1652 173.438 40.0518 173.842C38.2585 174.448 35.9078 174.65 34.5465 174.314C33.5572 174.044 32.8145 173.506 32.2585 172.901Z" fill="#845F1D"/>
<path d="M57.9838 164.154C60.1492 162.943 62.0665 161.664 64.0452 160.184C64.8492 159.579 65.5918 158.839 66.0865 157.963C66.6425 156.888 66.2718 156.08 65.6532 155.678C64.9105 155.206 64.0452 155.138 63.3025 155.61C60.8292 156.82 58.6638 158.503 56.7465 160.588C56.3145 161.126 56.0052 161.934 55.9425 162.674C55.8812 163.078 56.0665 163.75 56.4372 164.087C56.8092 164.355 57.4892 164.423 57.9838 164.154ZM72.5185 152.582C73.0132 152.986 73.3838 153.726 73.5078 154.87C73.5692 155.407 73.3225 156.283 73.0745 156.752C69.6732 162.808 67.3852 169.335 65.0958 175.928C61.7572 185.618 57.0558 194.498 50.4385 202.034C47.2838 205.599 44.1918 208.358 40.4812 210.982C39.4292 211.722 38.1918 212.126 37.0785 212.126C36.4598 212.126 35.5332 211.655 35.0998 211.116C34.0478 209.904 33.5532 207.887 33.8012 206.003C33.9252 204.994 34.2958 204.388 35.0998 204.254C35.8425 204.119 36.4598 204.522 36.7692 205.33C37.2638 206.474 38.0065 207.214 38.8105 207.214C39.6772 207.214 40.7892 206.676 41.5945 206.07C44.8718 203.58 47.8412 200.755 50.3758 197.323C55.2625 190.731 58.6638 183.531 61.5705 175.792C62.7465 172.631 63.8598 169.066 64.6638 165.634C64.9105 164.759 64.4158 164.558 63.7972 164.895C61.0145 166.442 58.1692 167.922 55.2625 169.066C53.2838 169.872 51.4892 168.326 51.1798 165.836C50.9945 164.692 51.1798 163.75 51.7985 162.808C52.9745 160.992 54.1492 159.646 55.8185 158.099C58.1692 155.946 60.4572 154.062 63.0558 152.582C65.6532 151.102 68.2505 150.967 70.7252 152.244C71.4665 152.179 72.0852 152.244 72.5185 152.582" fill="#845F1D"/>
<path d="M80.9258 168.729C82.5338 168.124 84.0178 167.181 85.1938 165.904C86.6778 164.356 87.3578 162.405 87.4818 160.185C87.5432 159.176 86.6778 158.165 85.6885 157.897C84.4512 157.56 83.2138 157.696 82.3485 158.704C80.4312 160.791 79.1325 163.347 78.3898 166.172C78.1432 167.115 78.5752 168.393 79.4418 168.729C79.9365 168.931 80.3698 168.931 80.9258 168.729ZM78.6992 156.687C79.4418 155.541 80.1218 154.668 81.1738 153.725C82.4098 152.648 83.7712 152.38 85.3165 152.583C87.2338 152.851 88.7805 153.389 89.9552 154.668C91.4405 156.215 92.4912 158.503 92.2445 160.319C91.8112 163.952 90.2032 166.98 87.5432 169.133C85.9978 170.412 84.2658 171.555 82.5338 172.429C79.4418 173.977 76.2258 175.053 73.8138 172.296C72.4525 170.748 73.3805 166.644 74.8645 163.548C75.9778 161.26 77.2765 158.839 78.6992 156.687" fill="#845F1D"/>
<path d="M113.084 160.453C113.455 160.185 113.827 159.647 114.012 159.176C114.259 158.569 114.073 157.56 113.455 157.091C112.899 156.619 111.167 156.417 110.301 156.619C106.095 157.628 102.508 159.444 99.5388 162.809C98.7975 163.751 98.2401 165.703 98.8588 166.711C99.2921 167.519 100.343 167.451 100.9 167.249C105.229 165.567 109.373 163.28 113.084 160.453ZM132.937 165.971C134.112 165.432 134.855 165.029 135.597 164.693C136.339 164.356 136.957 164.491 137.205 165.231C137.391 165.703 137.143 166.441 136.711 166.845C136.216 167.316 135.535 167.788 134.855 168.192C133.741 168.864 132.752 169.403 131.7 169.872C130.835 170.276 129.845 170.68 128.979 171.017C126.011 172.16 123.165 172.968 120.135 173.036C117.661 173.036 115.929 172.16 114.816 170.479C113.888 168.999 113.145 166.711 112.836 164.693C111.909 165.163 111.167 165.567 110.548 165.904C107.951 167.451 105.6 168.797 102.817 170.209C100.837 171.219 98.6735 171.892 96.3855 171.487C95.2721 171.285 94.2201 170.276 93.9108 168.931C93.2921 166.037 94.6535 163.616 96.1988 161.933C100.405 157.359 104.549 154.936 110.796 153.657C112.465 153.321 114.507 153.321 116.239 153.456C117.352 153.524 117.971 153.052 118.527 151.909C119.269 150.496 119.888 149.084 120.505 147.603C122.176 143.431 124.279 139.529 126.939 135.964C127.495 135.223 128.052 134.753 128.732 134.551C129.351 134.349 130.279 134.753 130.587 135.359C131.268 136.636 131.02 138.049 130.525 139.26C127.743 145.517 124.773 151.707 120.753 157.224C120.135 158.099 119.764 158.907 119.269 159.781C118.217 161.732 117.723 163.751 118.032 165.971C118.279 167.652 119.516 168.729 120.939 168.864C122.113 168.999 123.351 168.931 124.588 168.729C126.567 168.393 128.237 167.788 129.907 167.249C130.896 166.913 131.887 166.441 132.937 165.971Z" fill="#845F1D"/>
<path d="M140.971 168.729C142.579 168.124 144.063 167.181 145.239 165.904C146.723 164.356 147.403 162.405 147.527 160.185C147.589 159.176 146.723 158.165 145.734 157.897C144.497 157.56 143.259 157.696 142.394 158.704C140.477 160.791 139.178 163.347 138.435 166.172C138.189 167.115 138.621 168.393 139.487 168.729C139.982 168.931 140.415 168.931 140.971 168.729ZM138.745 156.687C139.487 155.541 140.167 154.668 141.219 153.725C142.455 152.648 143.817 152.38 145.362 152.583C147.279 152.851 148.826 153.389 150.001 154.668C151.486 156.215 152.537 158.503 152.29 160.319C151.857 163.952 150.249 166.98 147.589 169.133C146.043 170.412 144.311 171.555 142.579 172.429C139.487 173.977 136.271 175.053 133.859 172.296C132.498 170.748 133.426 166.644 134.91 163.548C136.023 161.26 137.322 158.839 138.745 156.687" fill="#845F1D"/>
<path d="M179.191 172.296C177.335 172.296 175.605 171.488 174.367 169.738C173.13 168.056 171.831 166.172 170.779 164.49C170.223 163.616 169.666 163.28 169.11 163.28C168.058 163.28 166.822 164.49 165.894 165.634C164.223 167.72 162.739 169.738 161.193 171.958C160.451 173.036 160.018 173.438 159.275 173.91C158.101 174.717 156.617 175.457 155.503 175.457C154.514 175.457 153.647 174.448 153.833 173.372C155.009 167.653 156.369 161.866 157.854 156.282C158.039 155.542 158.595 154.734 159.462 154.734C160.885 154.734 161.07 156.013 161.07 157.157C161.07 158.569 161.007 159.646 160.946 160.79C160.885 162.136 160.822 163.684 160.761 165.23C163.482 162.54 166.265 159.916 168.615 157.829C169.295 157.224 170.099 156.954 170.842 156.954C172.265 156.954 173.254 158.165 173.997 159.176C175.233 160.925 176.346 163.01 177.522 164.76C179.13 167.046 180.799 167.653 183.335 166.913C184.634 166.576 185.871 166.172 187.046 165.768C188.035 165.433 188.963 165.029 189.83 164.557C190.447 164.289 191.005 164.356 191.314 164.826C191.623 165.365 191.314 166.105 190.819 166.644C190.015 167.518 189.087 168.325 188.098 168.932C186.985 169.67 185.871 170.344 184.695 170.881C182.965 171.757 180.985 172.296 179.191 172.296Z" fill="#845F1D"/>
<path d="M217.528 159.31C217.157 160.117 217.095 161.194 217.157 162.067C217.776 161.934 218.58 161.53 219.197 161.126C219.94 160.655 220.683 160.05 221.424 159.242C222.105 158.503 222.661 157.561 222.847 156.889C223.219 155.677 221.981 155.339 221.239 155.677C219.321 156.485 218.332 157.561 217.528 159.31ZM223.219 151.034C224.084 151.034 224.888 151.371 225.568 152.043C227.671 154.331 227.733 155.879 226.435 158.435C225.321 160.655 223.836 162.27 222.043 163.683C220.929 164.558 219.755 165.298 218.703 165.837C219.384 168.123 222.352 168.595 225.073 168.595C226.805 168.595 228.661 168.326 230.516 167.922C233.052 167.317 235.403 166.442 237.629 165.501C238.309 165.23 238.804 164.961 239.299 164.693C240.041 164.355 240.66 164.491 240.907 165.23C241.092 165.702 240.845 166.442 240.412 166.845C239.732 167.518 239.052 168.057 238.371 168.459C236.083 169.806 233.547 171.083 231.135 171.825C228.228 172.699 225.073 173.371 222.105 173.371C219.631 173.371 217.28 172.766 215.549 171.487C213.445 169.873 212.58 167.181 212.58 164.625C212.58 161.126 214.003 157.627 216.167 155.274C217.776 153.591 220.683 151.034 223.219 151.034" fill="#845F1D"/>
<path d="M245.417 164.154C247.583 162.943 249.5 161.664 251.479 160.184C252.283 159.579 253.025 158.839 253.52 157.963C254.076 156.888 253.705 156.08 253.087 155.678C252.344 155.206 251.479 155.138 250.736 155.61C248.263 156.82 246.097 158.503 244.18 160.588C243.748 161.126 243.439 161.934 243.376 162.674C243.315 163.078 243.5 163.75 243.871 164.087C244.243 164.355 244.923 164.423 245.417 164.154ZM259.952 152.582C260.447 152.986 260.817 153.726 260.941 154.87C261.003 155.407 260.756 156.283 260.508 156.752C257.107 162.808 254.819 169.335 252.529 175.928C249.191 185.618 244.489 194.498 237.872 202.034C234.717 205.599 231.625 208.358 227.915 210.982C226.863 211.722 225.625 212.126 224.512 212.126C223.893 212.126 222.967 211.655 222.533 211.116C221.481 209.904 220.987 207.887 221.235 206.003C221.359 204.994 221.729 204.388 222.533 204.254C223.276 204.119 223.893 204.522 224.203 205.33C224.697 206.474 225.44 207.214 226.244 207.214C227.111 207.214 228.223 206.676 229.028 206.07C232.305 203.58 235.275 200.755 237.809 197.323C242.696 190.731 246.097 183.531 249.004 175.792C250.18 172.631 251.293 169.066 252.097 165.634C252.344 164.759 251.849 164.558 251.231 164.895C248.448 166.442 245.603 167.922 242.696 169.066C240.717 169.872 238.923 168.326 238.613 165.836C238.428 164.692 238.613 163.75 239.232 162.808C240.408 160.992 241.583 159.646 243.252 158.099C245.603 155.946 247.891 154.062 250.489 152.582C253.087 151.102 255.684 150.967 258.159 152.244C258.9 152.179 259.519 152.244 259.952 152.582" fill="#845F1D"/>
<path d="M278.132 142.288C277.822 143.566 276.4 144.172 275.349 143.365C274.112 142.422 273.432 141.077 273.678 139.394C273.741 138.99 274.112 138.453 274.482 138.252C276.585 137.038 278.317 138.184 278.317 140.74C278.317 141.21 278.256 141.75 278.132 142.288ZM275.844 171.69C272.813 173.237 269.782 173.977 266.504 173.842C264.34 173.774 262.854 172.564 262.05 170.344C261.246 168.258 261.37 166.373 262.36 164.221C263.412 161.933 264.71 159.58 266.009 157.292C266.628 156.214 267.802 155.744 268.793 156.349C269.658 156.888 269.844 158.098 269.473 158.838C268.793 160.654 268.112 162.405 267.308 164.221C266.876 165.162 266.752 166.308 266.876 167.316C267.061 168.864 268.73 169.872 269.968 169.604C273.493 168.797 276.709 167.586 280.234 165.97C281.409 165.432 282.152 165.029 282.894 164.693C283.636 164.356 284.254 164.49 284.502 165.23C284.688 165.702 284.44 166.441 284.008 166.845C283.513 167.316 282.832 167.788 282.152 168.192C279.988 169.469 278.07 170.545 275.844 171.69" fill="#845F1D"/>
<path d="M295.693 128.562C296.373 126.88 297.859 123.65 299.095 121.364C299.961 119.814 301.012 118.738 301.94 118.873C302.744 118.941 303.115 119.681 303.239 120.422C303.548 122.44 303.239 124.257 301.816 125.534C299.776 127.352 298.724 129.572 297.735 132.061C295.323 138.184 293.096 144.373 290.993 150.63C290.499 152.178 291.611 151.977 292.848 152.312C294.765 152.85 296.373 153.657 297.672 154.869C298.785 155.878 299.467 157.425 299.404 159.04C299.28 161.8 297.735 163.885 296.064 165.836C294.765 167.316 293.281 168.729 291.673 169.806C291.24 170.074 290.684 170.209 290.189 170.074C288.581 169.67 288.457 168.325 288.519 167.249C288.581 166.24 288.767 165.23 289.013 164.153C289.323 162.942 289.632 162.472 291.116 162.809C292.229 163.078 292.911 162.809 293.591 161.866C294.024 161.26 294.332 160.589 294.519 159.916C294.828 158.704 294.519 157.628 293.528 157.09C292.848 156.753 292.107 156.618 291.364 156.484C289.571 156.282 288.333 157.493 287.9 158.838C283.571 171.958 280.725 181.982 278.191 195.844C277.695 198.601 276.891 203.109 276.829 207.617C276.768 212.798 277.572 217.912 280.725 219.997C282.025 220.872 283.447 221.276 284.623 221.276C285.488 221.276 286.355 221.074 287.281 220.67C287.963 220.401 288.643 219.929 289.385 219.46C290.127 218.988 290.931 218.786 291.303 219.796C291.549 220.401 291.303 221.074 290.621 221.813C288.581 223.9 286.045 224.977 283.261 225.042C278.004 225.042 274.851 220.805 273.86 216.498C272.315 209.3 273.365 201.83 274.603 194.901C276.087 186.626 278.191 178.754 280.355 170.814C281.839 165.432 283.571 159.982 285.488 154.802C288.767 145.786 292.107 137.376 295.693 128.562Z" fill="#845F1D"/>
<path d="M308.679 173.708C306.513 173.708 304.101 173.371 302.741 171.892C301.009 170.008 300.267 167.047 301.195 164.423C301.567 163.414 301.999 162.471 302.556 161.53C305.277 157.022 311.648 151.976 316.472 150.092C317.895 149.554 319.564 149.622 320.616 150.698C322.719 152.716 323.275 156.686 321.667 158.704C320.368 160.319 319.379 161.462 317.832 162.943C317.337 163.414 316.287 163.482 315.668 162.74C315.173 162.135 315.049 161.396 315.605 160.588C316.409 159.512 316.967 158.704 317.647 157.56C318.512 156.147 318.884 154.6 318.327 153.995C317.523 153.052 315.915 153.591 314.801 154.128C311.771 155.61 309.483 157.83 307.627 160.791C307.071 161.732 306.637 162.74 306.391 163.683C305.463 167.18 306.452 169.671 309.731 169.872C311.833 170.008 314.431 169.468 316.472 168.863C319.44 167.922 322.161 166.711 324.697 165.5C325.377 165.163 325.935 164.895 326.553 164.692C327.295 164.423 327.913 164.491 328.161 165.231C328.347 165.702 328.099 166.442 327.667 166.846C327.172 167.316 326.615 167.788 325.935 168.191C324.079 169.403 322.533 170.276 320.863 170.95C316.967 172.766 312.947 173.708 308.679 173.708Z" fill="#845F1D"/>
<path d="M341.701 142.288C341.392 143.566 339.969 144.172 338.918 143.365C337.681 142.422 337.001 141.077 337.248 139.394C337.31 138.99 337.681 138.453 338.052 138.252C340.154 137.038 341.886 138.184 341.886 140.74C341.886 141.21 341.825 141.75 341.701 142.288ZM339.413 171.69C336.382 173.237 333.352 173.977 330.073 173.842C327.909 173.774 326.424 172.564 325.62 170.344C324.816 168.258 324.94 166.373 325.929 164.221C326.981 161.933 328.28 159.58 329.578 157.292C330.197 156.214 331.372 155.744 332.362 156.349C333.228 156.888 333.413 158.098 333.042 158.838C332.362 160.654 331.681 162.405 330.877 164.221C330.445 165.162 330.321 166.308 330.445 167.316C330.63 168.864 332.3 169.872 333.537 169.604C337.062 168.797 340.278 167.586 343.804 165.97C344.978 165.432 345.721 165.029 346.464 164.693C347.205 164.356 347.824 164.49 348.072 165.23C348.257 165.702 348.009 166.441 347.577 166.845C347.082 167.316 346.401 167.788 345.721 168.192C343.557 169.469 341.64 170.545 339.413 171.69" fill="#845F1D"/>
<path d="M351.841 168.729C353.449 168.124 354.933 167.181 356.109 165.904C357.593 164.356 358.273 162.405 358.397 160.185C358.459 159.176 357.593 158.165 356.604 157.897C355.367 157.56 354.129 157.696 353.264 158.704C351.347 160.791 350.048 163.347 349.305 166.172C349.059 167.115 349.491 168.393 350.357 168.729C350.852 168.931 351.285 168.931 351.841 168.729ZM349.615 156.687C350.357 155.541 351.037 154.668 352.089 153.725C353.325 152.648 354.687 152.38 356.232 152.583C358.149 152.851 359.696 153.389 360.871 154.668C362.356 156.215 363.407 158.503 363.16 160.319C362.727 163.952 361.119 166.98 358.459 169.133C356.913 170.412 355.181 171.555 353.449 172.429C350.357 173.977 347.141 175.053 344.729 172.296C343.368 170.748 344.296 166.644 345.78 163.548C346.893 161.26 348.192 158.839 349.615 156.687" fill="#845F1D"/>
<path fill-rule="evenodd" clip-rule="evenodd" d="M147.297 144.048C147.297 144.048 144.63 147.158 149.52 147.603C149.52 147.603 165.074 143.604 147.297 144.048Z" fill="#231F20"/>
</svg>
